<?xml version="1.0" encoding="UTF-8" standalone="no"?>
<!-- Created with Inkscape (http://www.inkscape.org/) -->

<svg
   xmlns:dc="http://purl.org/dc/elements/1.1/"
   xmlns:cc="http://creativecommons.org/ns#"
   xmlns:rdf="http://www.w3.org/1999/02/22-rdf-syntax-ns#"
   xmlns:svg="http://www.w3.org/2000/svg"
   xmlns="http://www.w3.org/2000/svg"
   xmlns:sodipodi="http://sodipodi.sourceforge.net/DTD/sodipodi-0.dtd"
   xmlns:inkscape="http://www.inkscape.org/namespaces/inkscape"
   id="svg4141"
   version="1.1"
   inkscape:version="0.48.1 r9760"
   width="385.99998"
   height="512.00001"
   xml:space="preserve"
   sodipodi:docname="logo_uca.pdf"><metadata
     id="metadata4147"><rdf:RDF><cc:Work
         rdf:about=""><dc:format>image/svg+xml</dc:format><dc:type
           rdf:resource="http://purl.org/dc/dcmitype/StillImage" /><dc:title></dc:title></cc:Work></rdf:RDF></metadata><defs
     id="defs4145" /><sodipodi:namedview
     pagecolor="#ffffff"
     bordercolor="#666666"
     borderopacity="1"
     objecttolerance="10"
     gridtolerance="10"
     guidetolerance="10"
     inkscape:pageopacity="0"
     inkscape:pageshadow="2"
     inkscape:window-width="1920"
     inkscape:window-height="1056"
     id="namedview4143"
     showgrid="false"
     inkscape:zoom="1.125"
     inkscape:cx="134.79174"
     inkscape:cy="257.60282"
     inkscape:window-x="0"
     inkscape:window-y="24"
     inkscape:window-maximized="1"
     inkscape:current-layer="g4149" /><g
     id="g4149"
     inkscape:groupmode="layer"
     inkscape:label="logo_uca"
     transform="matrix(1.25,0,0,-1.25,0,512.00001)"><path
       inkscape:connector-curvature="0"
       id="path4155"
       style="fill:#696969;fill-opacity:1;fill-rule:evenodd;stroke:none"
       d="m 105.52,225.381 c -3.45,0.278 -6.536,1.996 -9.993,2.227 -6.007,2.422 -12.093,4.668 -17.777,7.808 -2.59,1.207 -4.93,2.954 -7.055,4.84 -1.297,1.371 -3.371,1.68 -4.449,3.356 -1.879,1.773 -3.629,3.648 -5.156,5.715 -1.695,1.718 -3,3.777 -4.762,5.433 -1.875,2.52 -4.176,4.668 -5.883,7.328 -3.492,4.571 -6.875,9.25 -10.648,13.582 -1.496,0.907 -1.637,2.371 -1.465,3.965 0,4.363 0,8.731 0,13.094 1.668,-1.527 3.09,-3.246 4.449,-5.024 1.16,-1.48 2.317,-2.96 3.617,-4.328 1.536,-2 3.102,-3.964 4.477,-6.093 1.879,-2.52 4.289,-4.575 5.773,-7.387 1.243,-1.836 2.7,-3.488 4.098,-5.195 1.887,-1.508 3.008,-3.68 4.453,-5.524 1.996,-0.953 2.672,-3.23 4.442,-4.504 1.332,-1.187 1.925,-2.996 3.687,-3.695 1.789,-2.008 3.926,-3.629 6.024,-5.238 1.351,-0.844 2.375,-2.153 3.785,-2.922 1.043,-1.321 2.785,-1.141 3.746,-2.528 1.48,-0.363 2.637,-1.406 3.906,-2.113 1.391,-0.461 2.52,-1.183 3.828,-1.855 1.137,-0.696 2.676,-0.93 3.965,-1.473 1.395,-0.613 2.539,-1.258 4.098,-1.359 1.722,-1.172 3.824,-0.532 5.621,-1.43 1.918,0.242 3.609,-0.922 5.543,-0.563 3.027,0.161 6.16,-0.328 9.117,0.258 1.883,0.75 4.051,-0.203 5.879,0.867 1.949,-0.378 3.644,0.801 5.57,0.567 1.727,0.582 3.43,1.254 5.262,1.183 4.73,1.633 9.543,3.071 14.18,4.934 -1.211,-1.629 -3.407,-1.664 -5.008,-2.793 -1.817,-0.195 -2.633,-2.023 -4.446,-2.226 -1.855,-0.926 -3.945,-1.368 -5.543,-2.79 -3.535,-1.246 -6.984,-2.707 -10.55,-3.89 -2.215,0.492 -3.942,-1.461 -6.106,-1.102 -1.527,-0.656 -3.176,-0.543 -4.715,-1.125 -1.882,0.117 -3.593,-0.886 -5.515,-0.539 -2.157,0.133 -4.422,-0.383 -6.449,0.539 z" /><path
       inkscape:connector-curvature="0"
       id="path4157"
       style="fill:#696969;fill-opacity:1;fill-rule:evenodd;stroke:none"
       d="m 111.648,240.971 c -2.679,0.203 -5.101,1.473 -7.793,1.664 -4.566,2.11 -9.515,3.992 -13.55,7.078 -3.141,1.539 -5.317,4.414 -8.16,6.348 -1.922,2.945 -4.993,5.031 -6.594,8.281 -2.61,1.215 -3.129,4.52 -5.567,6.117 -3.035,3.965 -6.453,7.711 -9.507,11.754 -2.997,3.641 -6.329,7.016 -9.118,10.825 -2.14,1.835 -3.043,4.742 -5.504,6.175 -2.144,3.606 -5.531,6.524 -7.523,10.078 0,5.239 0,10.477 0,15.715 3.672,-4.933 7.793,-9.472 11.309,-14.543 2.605,-3.289 5.273,-6.519 7.933,-9.758 3.672,-3.796 6.742,-8.136 10.016,-12.257 2.949,-3.336 5.457,-7.055 8.445,-10.375 1.965,-2.633 4.699,-4.657 6.16,-7.614 2.153,-1.386 3.797,-3.277 5.403,-5.234 1.703,-2.609 4.957,-3.719 6.664,-6.094 2.937,-0.902 4.91,-3.504 7.812,-4.234 2.266,-0.895 4.438,-1.84 6.789,-2.793 2.442,-0.258 4.758,-1.016 7.231,-1.125 3.879,-0.02 7.765,-0.18 11.519,0.637 4.27,0.523 8.133,2.746 12.153,4.082 3.007,2.465 7.281,3.047 9.64,6.414 5.168,3.301 7.758,9.039 11.114,13.926 1.265,2.73 3.199,5.109 3.484,8.187 1.633,4.109 2.242,8.645 2.621,13.02 0.324,5.707 -0.473,11.394 -1.988,16.875 -2.121,5.543 -4.41,11.269 -8.391,15.707 -1.867,2.183 -3.129,5.035 -5.375,6.683 -1.66,2.942 -4.816,4.551 -5.91,7.977 -4.875,4.519 -8.625,10 -13.004,14.949 -2.973,3.484 -6.027,6.898 -9.184,10.227 -1.468,2.414 -3.492,4.277 -5.543,6.117 -2.75,4.09 -6.546,7.281 -9.601,11.109 -1.996,2.371 -4.145,4.606 -5.996,7.106 0,5.195 0,10.39 0,15.589 2.547,-3.234 5.383,-6.226 7.851,-9.527 6.129,-6.82 11.942,-13.961 18.102,-20.801 7.055,-8.199 14.297,-16.226 21.394,-24.336 3.934,-4.394 7.094,-9.472 11.2,-13.711 4.57,-5.757 8.238,-12.129 11.988,-18.429 1.473,-5.516 4.359,-10.621 4.57,-16.453 0.672,-5.383 0.668,-10.938 0.071,-16.321 -0.594,-5.789 -2.672,-11.316 -4.86,-16.66 -2.519,-6.242 -7.48,-10.926 -11.429,-16.25 -3.637,-1.871 -5.895,-5.414 -9.622,-7.141 -3.519,-2.402 -7.539,-4.082 -11.503,-5.574 -3.875,-1.035 -7.528,-3.058 -11.653,-2.847 -2.23,-0.754 -4.633,-0.836 -6.98,-1.125 -2.547,-0.25 -4.918,0.242 -7.328,0.562 -0.594,0 -1.192,0 -1.786,0 z" /><path
       inkscape:connector-curvature="0"
       id="path4159"
       style="fill:#696969;fill-opacity:1;fill-rule:evenodd;stroke:none"
       d="m 117.191,259.885 c -1.757,0.852 -3.597,0.965 -5.304,1.82 -1.699,1.004 -3.403,1.032 -4.985,2.223 -2.289,0.574 -4.05,2.223 -6.043,3.442 -1.515,1.066 -3.035,2.117 -4.445,3.328 -1.586,0.98 -2.543,2.605 -3.965,3.718 -1.172,1.579 -2.719,2.872 -3.683,4.622 -3.489,3.91 -6.75,7.996 -9.891,12.183 -4.289,5.031 -8.691,9.969 -12.551,15.332 -3.429,3.813 -6.554,7.86 -9.652,11.926 -4.305,5.016 -8.672,9.988 -12.551,15.332 -1.855,2.391 -4.316,4.562 -5.789,7.098 0,5.461 0,10.918 0,16.379 4.453,-6.004 9.711,-11.344 14.07,-17.426 2.93,-4.071 7.032,-7.106 9.786,-11.328 4.406,-5.735 8.82,-11.457 13.632,-16.852 2.516,-3.367 5.125,-6.633 7.989,-9.699 6.457,-8.215 12.707,-16.617 19.332,-24.684 3.597,-2.359 7.613,-4.222 11.605,-5.715 2.145,0.383 3.875,-0.933 6.02,-0.562 1.929,-0.285 3.566,0.508 5.394,0.769 1.887,0.289 3.606,0.883 5.27,1.918 2.16,0.993 3.636,2.942 5.765,3.993 2.106,1.91 4.02,3.957 4.981,6.683 1.293,1.485 2.078,3.531 2.785,5.328 0.152,1.793 0.57,3.52 0.855,5.285 0.547,2.473 0.094,5.176 0.243,7.739 -0.821,1.797 -0.891,3.758 -1.407,5.617 -1.019,1.668 -0.82,3.641 -2.066,5.258 -0.598,2.07 -2.742,2.625 -3.231,4.797 -1.175,2.062 -3.128,3.597 -4.214,5.781 -3.118,2.848 -4.551,7.086 -7.961,9.699 -1.313,2.309 -2.95,4.422 -5.168,5.859 -2.832,3.918 -6.356,7.278 -9.418,11.012 -1.422,1.672 -3.508,2.528 -4.532,4.539 -2.085,1.989 -3.679,4.375 -5.679,6.438 -1.492,2.062 -0.426,4.91 -0.75,7.332 0,3.121 0,6.242 0,9.363 2.137,-2.887 4.515,-5.543 6.781,-8.305 2.246,-2.468 4.668,-4.789 6.707,-7.437 3.527,-3.774 6.438,-8.168 10.633,-11.305 1.812,-1.828 3.332,-3.953 5.176,-5.773 1.804,-2.414 4.023,-4.469 5.855,-6.86 2.754,-2.679 4.617,-6.125 7.457,-8.726 2.36,-2.645 3.758,-5.883 5.875,-8.676 1.188,-2.555 3.074,-4.676 4.293,-7.223 1.891,-2.632 2.356,-5.933 3.324,-8.937 0.207,-2.035 0.86,-3.965 0.563,-6.117 0.172,-2.504 -0.668,-4.844 -1.125,-7.246 0.254,-2.176 -1.461,-3.938 -1.207,-6.098 -0.762,-2.469 -2.43,-4.473 -3.238,-6.926 -1.446,-1.367 -1.887,-3.308 -3.219,-4.793 -1.442,-3.09 -4.637,-4.418 -6.77,-6.879 -1.984,-0.547 -3.336,-1.937 -5.16,-2.66 -1.633,-0.273 -2.726,-1.5 -4.293,-1.793 -1.305,-0.937 -2.969,-1.078 -4.445,-1.664 -1.348,-0.949 -3.438,-0.129 -4.754,-1.129 -2.301,0 -4.598,0 -6.895,0 z" /><path
       inkscape:connector-curvature="0"
       id="path4161"
       style="fill:#696969;fill-opacity:1;fill-rule:evenodd;stroke:none"
       d="m 118.289,280.495 -0.535,0 -0.563,0 -0.562,0.535 -0.535,0 -0.563,0 -0.562,0 -0.563,0.562 -0.535,0.567 -0.562,0 -0.563,0.535 2.223,0 2.222,1.125 2.223,0.566 1.66,1.098 1.66,0.566 1.125,1.098 1.098,1.129 1.125,1.101 0.563,0.563 0.535,1.125 0.562,1.101 0,1.664 0.563,1.125 -0.563,1.102 0,1.125 0,1.102 -0.562,1.125 -0.535,1.664 -0.563,1.101 -0.562,1.125 -0.563,1.102 -1.098,1.691 -0.562,1.098 -1.098,1.101 -1.125,1.692 -0.562,1.097 -1.098,1.129 -1.125,1.102 -1.098,1.125 -2.222,2.227 -1.66,2.226 -0.563,1.102 -1.098,0.562 -0.562,0.539 -0.563,1.125 -0.562,0.563 -0.535,0.539 -1.125,1.125 -0.559,0.562 -0.539,1.102 -0.562,0.562 -1.121,0.563 -0.54,1.101 -0.562,0.563 -0.563,0.566 -1.097,1.098 -0.563,0.566 -0.562,1.098 0,1.129 0,0.535 0,1.129 0,1.098 0,1.129 0,1.101 0,1.125 0,0.563 0,1.101 0,1.125 0,1.102 0,1.125 0,1.101 0,0.563 0,1.101 0,1.125 1.664,-2.226 2.223,-2.227 1.683,-2.226 1.66,-2.227 1.66,-2.226 1.661,-1.665 1.687,-2.226 1.66,-1.664 1.66,-2.227 1.661,-1.691 1.66,-2.227 1.687,-1.664 1.66,-1.664 1.661,-2.226 0.562,-0.563 1.098,-1.101 0.562,-1.125 0.563,-0.539 0.535,-1.125 1.125,-1.102 0.562,-1.125 0.535,-0.566 0.563,-1.098 1.125,-1.129 0.535,-0.535 0.563,-1.129 0.562,-1.664 0.563,-1.664 0.535,-1.125 0.562,-1.664 0.563,-1.664 0,-1.125 0.562,-1.664 0,-1.102 0,-1.125 0,-1.102 0,-1.664 -0.562,-0.562 0,-1.125 -0.563,-1.102 -0.562,-1.125 -0.535,-1.101 -0.563,-0.563 -0.562,-1.101 -1.098,-0.563 -0.562,-0.566 -1.126,-0.563 -0.535,-1.101 -1.125,-0.563 -1.097,0 -1.125,-0.562 -1.098,-0.535 -1.125,-0.567 -1.66,0 -1.098,-0.562 -1.125,0 -1.66,-0.535 -1.125,0 z" /><path
       inkscape:connector-curvature="0"
       id="path4163"
       style="fill:#696969;fill-opacity:1;fill-rule:evenodd;stroke:none"
       d="m 202.16,225.381 c 3.664,0.465 7.145,1.746 10.75,2.485 5.617,1.847 10.992,4.347 16.313,6.906 3.882,2.094 7.246,5.039 10.882,7.512 2.77,2.89 5.875,5.546 8.379,8.636 0.832,2.278 3.024,3.563 4.204,5.637 3.078,2.941 5.156,6.746 8.175,9.754 1.532,1.758 2.325,4.059 4.27,5.48 1.301,1.868 2.394,3.903 4.238,5.348 0,5.195 0,10.395 0,15.59 -1.641,-1.672 -2.824,-3.707 -4.66,-5.223 -1.922,-2.047 -2.727,-5.148 -5.356,-6.476 -2.097,-3.348 -4.703,-6.332 -6.855,-9.637 -1.594,-1.473 -2.68,-3.355 -4.137,-4.934 -0.953,-1.453 -1.769,-3.05 -3.441,-3.781 -1.926,-3.629 -5.219,-6.133 -7.914,-9.133 -1.059,-2.015 -3.367,-2.793 -4.707,-4.617 -1.906,-2.39 -4.828,-3.465 -6.821,-5.73 -1.421,-0.735 -2.339,-1.789 -3.882,-2.227 -1.059,-1.371 -2.719,-1.039 -3.801,-2.469 -1.332,-0.441 -2.57,-1.242 -3.797,-1.812 -1.223,-0.953 -2.695,-0.949 -3.891,-1.652 -1.484,0.101 -2.418,-1.692 -4.066,-1.313 -1.723,-0.578 -3.414,-1.254 -5.238,-1.184 -1.512,-0.781 -3.254,-0.179 -4.75,-1.043 -3.582,0.125 -7.231,-0.253 -10.77,0.2 -2.086,0.824 -4.43,-0.172 -6.449,0.925 -1.922,-0.246 -3.602,0.946 -5.543,0.567 -1.734,0.566 -3.434,1.254 -5.262,1.183 -4.773,1.536 -9.48,3.223 -14.179,4.934 2,-1.715 4.664,-2.238 6.855,-3.543 1.25,-1.418 3.289,-1.699 4.969,-2.449 1.769,-0.117 2.629,-1.707 4.191,-2.145 3.207,-1.117 6.348,-2.382 9.531,-3.562 2.239,0.347 4.164,-1.27 6.36,-1.188 1.512,-0.781 3.25,-0.183 4.75,-1.039 1.691,0.063 3.222,-0.871 4.957,-0.539 2.234,0.149 4.59,-0.406 6.695,0.539 z" /><path
       inkscape:connector-curvature="0"
       id="path4165"
       style="fill:#696969;fill-opacity:1;fill-rule:evenodd;stroke:none"
       d="m 196.055,240.971 c 2.785,0.324 5.398,1.383 8.156,1.859 2.453,1.083 5.047,1.633 7.398,3.157 2.629,0.894 4.418,2.644 6.496,4.09 2.09,1.609 4.536,3.023 6.11,5.011 2.832,1.832 4.367,4.965 6.836,7.266 3.054,3.426 5.574,7.129 8.863,10.332 0.941,2.668 3.535,3.664 4.797,6.078 2.527,3.137 5.055,6.266 7.75,9.258 2.211,2.301 3.801,5.117 5.957,7.465 3.277,3.457 6.273,7.136 9.012,11.047 2.992,2.148 1.664,5.867 1.941,9.004 0,3.156 0,6.312 0,9.468 -4.332,-5.59 -8.894,-10.98 -12.984,-16.777 -4.262,-4.512 -7.473,-9.93 -11.684,-14.484 -3.203,-4.364 -7.336,-7.891 -10.289,-12.45 -2.418,-4.086 -6.789,-6.621 -8.934,-10.836 -1.937,-1.593 -3.695,-3.437 -5.371,-5.382 -3.066,-3.372 -6.48,-6.231 -10.722,-7.981 -1.887,-2.348 -4.825,-2.242 -7.227,-3.891 -2.605,-0.203 -4.816,-2.011 -7.543,-1.664 -3.543,-1.195 -7.582,-0.273 -11.336,-0.562 -2.972,0.934 -6.355,0.945 -9.297,2.391 -4.105,1.492 -7.976,3.558 -11.757,5.64 -4.2,3.887 -9.223,7.192 -11.985,12.363 -3.941,5.227 -6.43,11.52 -8.027,17.813 -1.496,6.758 -1.672,13.824 -0.164,20.594 0.918,5.172 3.047,10.152 5.695,14.664 2.774,2.965 4.242,6.886 7.055,9.644 1.867,1.7 2.972,4.321 5.156,5.946 2.895,4 6.184,7.656 9.254,11.5 2.617,3.25 5.168,6.562 8.227,9.429 1.582,2.512 3.613,4.571 5.804,6.473 2.75,4.09 6.547,7.281 9.602,11.109 3.152,3.973 7.09,7.266 9.875,11.559 2.34,1.449 4.601,3.699 3.883,6.68 0,4.265 0,8.531 0,12.8 -3.77,-3.906 -7.129,-8.171 -10.782,-12.183 -10.246,-11.938 -20.601,-23.891 -31.105,-35.613 -3.156,-3.309 -5.699,-7.168 -8.867,-10.458 -1.946,-3.476 -5.125,-6.039 -7.313,-9.378 -4.765,-4.723 -7.941,-10.786 -11.32,-16.489 -3.016,-6.496 -5.067,-13.437 -6.449,-20.441 -0.465,-7.242 -0.633,-14.731 1.422,-21.758 2.16,-6.965 4.605,-14.094 9.691,-19.508 3.172,-4.676 7.734,-8.078 11.801,-11.847 5.5,-2.903 10.648,-6.719 16.875,-8.004 3.082,-1.524 6.429,-2.301 9.793,-2.571 2.23,-0.476 4.558,-0.562 6.816,-0.925 3.145,-0.422 5.797,0.796 8.891,0.562 z" /><path
       inkscape:connector-curvature="0"
       id="path4167"
       style="fill:#696969;fill-opacity:1;fill-rule:evenodd;stroke:none"
       d="m 191.047,259.885 c 1.84,1.27 4.039,1.055 5.867,2.383 1.875,0.219 3.313,1.414 5.02,2.074 1.687,0.235 3.101,1.793 4.586,2.703 2.148,1.325 4.035,3.02 6.105,4.453 1.02,1.485 2.473,2.672 3.77,3.875 1.73,2.305 3.785,4.559 5.421,7.04 3.528,4.027 6.965,8.121 10.11,12.441 4.344,5.133 8.844,10.137 12.773,15.59 3.426,3.812 6.559,7.851 9.649,11.929 4.293,5.024 8.683,9.977 12.554,15.329 1.254,1.511 3.067,2.812 2.469,5.007 0,4.86 0,9.719 0,14.579 -4.203,-5.493 -8.465,-10.934 -13.062,-16.094 -5.407,-7.188 -11.911,-13.469 -17.129,-20.813 -3.66,-5.054 -7.856,-9.672 -11.778,-14.508 -1.761,-1.64 -3.172,-3.539 -4.382,-5.601 -2.477,-1.922 -3.321,-5.113 -5.868,-6.981 -1.297,-3.027 -4.246,-4.773 -5.543,-7.808 -2.629,-2.078 -3.683,-5.395 -6.343,-7.457 -1.559,-1.297 -3.067,-2.703 -5.071,-3.266 -3.105,-1.406 -6.136,-3.617 -9.687,-3.176 -1.91,-1 -4.375,-0.539 -6.43,-0.41 -1.777,0.805 -3.789,0.676 -5.586,1.403 -2.719,1.128 -4.961,2.894 -7.187,4.718 -2.367,1.328 -3.782,3.793 -5.243,5.961 -1.234,2.129 -2.863,4.227 -2.988,6.762 -0.293,1.84 -1.09,3.473 -0.894,5.387 -0.965,1.957 -0.563,4.433 -0.41,6.531 0.507,1.789 0.675,3.664 0.972,5.504 0.598,1.808 1.735,3.48 1.965,5.371 2.602,3.32 4.738,7.082 7.379,10.445 2.082,1.891 3.141,4.629 5.273,6.489 2.297,3.582 5.036,6.808 8.145,9.726 3.68,5.395 8.82,9.613 13.141,14.465 1.449,2.023 3.328,3.711 4.789,5.73 1.332,1.614 3.816,2.747 3.168,5.176 0,4.531 0,9.059 0,13.59 -2.75,-2.648 -5.102,-5.637 -7.516,-8.574 -1.098,-2.016 -2.992,-3.227 -4.559,-4.766 -2.898,-4.207 -6.629,-7.715 -9.976,-11.551 -3.43,-3.437 -6.965,-6.785 -9.989,-10.57 -1.988,-2.129 -3.792,-4.414 -5.785,-6.539 -3.769,-5.269 -7.972,-10.266 -11.5,-15.68 -1.082,-2.871 -3.156,-5.164 -4.629,-7.769 -0.75,-3.457 -3.316,-6.512 -2.679,-10.246 -0.176,-2.114 -0.543,-3.766 0,-5.801 -0.332,-2.34 0.586,-4.481 0.644,-6.754 1.508,-3.769 2.77,-7.633 4.336,-11.379 1.59,-1.269 1.613,-3.508 3.5,-4.605 0.774,-1.707 1.805,-3.375 3.473,-4.45 1.828,-0.906 2.797,-3.054 5.004,-3.335 1.367,-1.29 3.183,-1.813 4.679,-2.637 1.633,-0.223 2.668,-1.801 4.446,-1.664 1.195,-1.239 3.195,-0.582 4.445,-1.66 1.902,0.378 3.094,-0.961 5.008,-0.567 1.848,0 3.695,0 5.543,0 z" /><path
       inkscape:connector-curvature="0"
       id="path4169"
       style="fill:#696969;fill-opacity:1;fill-rule:evenodd;stroke:none"
       d="m 189.945,280.495 0.563,0 0.539,0.535 0.562,0 0.559,0 0.562,0 0.54,0.562 0.562,0 0.559,0.567 0.539,0 0.562,0.535 -2.762,0 -2.222,1.125 -1.684,0.566 -2.222,1.098 -1.098,0.566 -1.664,1.098 -1.121,1.129 -0.563,1.101 -1.097,0.563 -0.563,1.125 -0.539,1.101 0,1.664 0,1.125 0,1.102 0,1.125 0.539,1.102 0,1.125 0.563,1.664 0.562,1.101 0.535,1.125 1.125,1.102 0.559,1.691 1.101,1.098 0.563,1.101 1.098,1.692 1.125,1.097 0.558,1.129 1.102,1.102 1.121,1.125 2.222,2.227 1.661,2.226 1.101,1.102 0.563,0.562 0.558,0.539 0.539,1.125 1.121,0.563 0.563,0.539 0.539,1.125 0.563,0.562 0.558,1.102 1.102,0.562 0.562,0.563 0.559,1.101 0.562,0.563 1.098,0.566 0.562,1.098 0.563,0.566 1.098,1.098 0,1.129 0,0.535 0,1.129 0,1.098 0,1.129 0,1.101 0,1.125 0,0.563 0,1.101 0,1.125 0,1.102 0,1.125 0,1.101 0,0.563 0,1.101 0,1.125 -2.223,-2.226 -1.66,-2.227 -2.223,-2.226 -1.66,-2.227 -1.684,-2.226 -1.66,-1.665 -1.66,-2.226 -1.664,-1.664 -1.66,-2.227 -1.684,-1.691 -1.66,-2.227 -1.66,-1.664 -1.664,-1.664 -1.684,-2.226 -0.535,-0.563 -0.562,-1.101 -1.102,-1.125 -0.559,-0.539 -0.562,-1.125 -0.563,-1.102 -1.097,-1.125 -0.563,-0.566 -0.562,-1.098 -0.535,-1.129 -0.563,-0.535 -0.562,-1.129 -1.098,-1.664 -0.563,-1.664 -0.562,-1.125 -0.563,-1.664 -0.535,-1.664 0,-1.125 -0.562,-1.664 0,-1.102 0,-1.125 0,-1.102 0.562,-1.664 0,-0.562 0.535,-1.125 0,-1.102 0.563,-1.125 0.562,-1.101 0.563,-0.563 1.098,-1.101 0.562,-0.563 0.563,-0.566 1.097,-0.563 1.121,-1.101 1.102,-0.563 0.562,0 1.098,-0.562 1.66,-0.535 1.125,-0.567 1.098,0 1.125,-0.562 1.66,0 1.121,-0.535 1.66,0 z" /><path
       inkscape:connector-curvature="0"
       id="path4171"
       style="fill:#ff8c00;fill-opacity:1;fill-rule:evenodd;stroke:none"
       d="m 0.012,93.502 0,0.563 0,0.562 0,0.536 0,0.566 0,0.562 0,0.563 0,0.539 19.441,0 18.879,0 19.441,0 19.438,0 19.441,0 18.879,0 19.442,0 19.441,0 19.414,0 18.902,0 19.418,0 19.438,0 19.441,0 19.442,0 18.879,0 19.441,0 0,-0.539 0,-0.563 0,-0.562 0,-0.566 0,-0.536 0,-0.562 0,-0.563 -19.441,0 -18.879,0 -19.442,0 -19.441,0 -19.438,0 -19.418,0 -18.902,0 -19.414,0 -19.441,0 -19.442,0 -18.879,0 -19.441,0 -19.438,0 -19.441,0 -18.879,0 -19.441,0 z" /><path
       inkscape:connector-curvature="0"
       id="path4173"
       style="fill:#008080;fill-opacity:1;fill-rule:evenodd;stroke:none"
       d="m 117.824,166.62 c 0.281,1.726 0.711,3.246 1.102,5.015 0.949,4.305 2.058,8.133 4.519,12.453 0.782,1.379 1.442,2.633 2.278,3.867 0.738,1.09 1,1.411 2.425,3.204 1.602,1.898 6.653,6.328 8.137,7.035 1.653,0.781 3.348,1.476 5.008,2.226 2.066,0.934 5.289,1.711 9.547,2.301 1.18,0.164 6.422,0.57 6.949,0.57 2.649,-0.07 5.961,-0.644 7.66,-0.918 1.696,-0.273 6.977,-1.41 8.199,-2.234 1.332,-0.894 5.957,-3.301 7.411,-4.809 1.082,-1.125 2.117,-2.414 3.105,-3.652 0.902,-1.137 3.945,-5.238 4.594,-6.289 0.59,-0.953 2.457,-5.684 2.851,-8.926 l -12.211,-0.05 c 0.239,2.792 -0.964,5.562 -2.222,7.808 -0.778,1.379 -1.719,2.684 -3.106,3.652 -0.929,1.047 -2.097,1.735 -3.207,2.567 -1.371,1.027 -3.164,1.797 -4.801,2.125 -1.73,0.344 -3.476,0.726 -5.359,0.535 -1.539,-0.152 -7.492,0.086 -9.637,-0.535 -2.078,-0.328 -3.226,-0.836 -4.855,-1.328 -1.731,-0.77 -3.637,-1.356 -5.262,-2.215 -1.777,-1.285 -2.926,-2.434 -4.094,-4.039 -1.32,-1.895 -2.816,-3.778 -3.777,-5.867 -0.855,-2.301 -2.066,-4.457 -2.496,-6.926 -0.523,-3.031 -1.73,-15.824 -1.18,-19.149 0.348,-2.105 0.813,-4.238 1.25,-6.308 0.489,-2.293 2.442,-7.66 3.395,-9.348 1.508,-2.668 6.773,-6.871 8.562,-7.863 4.09,-2.27 6.602,-2.824 10.036,-3.18 3.089,-0.32 6.316,-0.191 9.402,0.149 1.914,0.398 3.148,0.754 5.035,1.464 2.047,1.18 3.852,2.352 6.746,5.606 1.137,1.176 1.863,2.266 2.785,3.918 0.957,1.719 2.106,3.316 2.508,5.293 0.645,2.312 1.359,4.609 1.938,6.941 3.515,0 7.031,0 10.55,0 0.34,-2.05 -0.757,-3.863 -1.101,-5.808 -0.453,-2.61 -1.422,-4.61 -2.035,-6.973 -0.571,-2.215 -1.957,-4.172 -2.969,-6.137 -0.719,-1.386 -4.805,-5.925 -5.75,-6.781 -1.395,-1.266 -3.184,-2.223 -4.801,-3.25 -3.152,-2.012 -7.086,-3.324 -10.781,-3.894 -1.699,-0.258 -2.785,-0.856 -8.891,-0.821 -4.664,-0.035 -7.73,0.504 -9.758,1.18 -1.632,0.414 -6.613,2.867 -9.093,4.199 -5.18,2.777 -11.578,9.985 -12.215,11.438 -1.403,3.199 -3.16,6.269 -4.238,9.605 -0.633,1.961 -1,3.477 -1.383,5.477 -0.336,1.757 -0.625,3.351 -0.84,5.093 -0.066,0.539 -0.559,9.743 0.07,13.579 z" /><path
       inkscape:connector-curvature="0"
       id="path4175"
       style="fill:#ff8c00;fill-opacity:1;fill-rule:evenodd;stroke:none"
       d="m 42.777,142.471 c 0,18.547 0,37.098 0,55.649 -1.574,0.656 -2.168,0.437 -4.121,0.562 -1.777,0 -3.554,0 -5.332,0 l 0.238,3.328 c 13.622,0 27.243,0 40.868,0 l -0.563,-3.328 c -2.496,-0.105 -5.043,-0.352 -7.441,-0.562 -1.953,-0.172 -2.266,-0.645 -1.985,-2.375 0,-21.282 0,-42.567 0,-63.848 0.539,-1.149 0.883,-2.34 1.204,-3.539 0.671,-1.516 2.148,-2.469 3.242,-3.68 1.054,-0.394 5.73,-2.301 7.054,-2.226 2.559,-0.024 10.247,0.05 11.649,0 1.59,0.367 3.215,1.015 4.617,1.664 1.039,0.48 5.129,4.476 5.711,5.722 0.531,1.125 0.93,2.371 1.496,3.336 0.664,1.141 1.602,6.574 1.684,8.196 0.914,17.5 0,35.613 0,53.421 -0.375,1.243 -0.641,2.133 -1.703,2.918 -0.926,0.766 -2.457,1.161 -3.778,0.973 -1.879,0 -3.754,0 -5.633,0 l 0.239,3.328 c 8.804,0 17.605,0 26.406,0 l -0.234,-3.328 c -2.7,0 -5.395,0 -8.094,0 -0.938,-0.391 -1.832,-1.125 -2.223,-1.664 -0.738,-1.02 -0.68,-2.523 -0.558,-3.977 -0.028,-12.113 0.046,-24.234 -0.04,-36.343 0.098,-4.887 -0.609,-9.496 -0.5,-14.227 0.094,-4.019 -1.492,-8.984 -1.683,-10.574 -0.563,-4.606 -6.953,-9.844 -8.402,-10.899 -1.106,-0.675 -4.754,-3.476 -6.067,-3.832 -1.863,-0.507 -8.922,-1.089 -10.129,-1.125 -2.379,-0.07 -10.312,0.422 -12.121,0.829 -1.73,0.386 -8.39,3.187 -10.14,4 -1.129,0.562 -2.227,0.988 -3.325,1.683 -1.152,0.731 -5.394,4.836 -6.453,6.555 -0.672,1.121 -1.226,2.176 -1.66,3.265 -0.43,1.075 -0.828,2.43 -1.125,3.415 -0.484,1.613 -1.098,5.937 -1.098,6.683 z" /><path
       inkscape:connector-curvature="0"
       id="path4177"
       style="fill:#008080;fill-opacity:1;fill-rule:evenodd;stroke:none"
       d="m 209.926,116.084 -11.09,0 32.75,85.387 10.754,-0.101 31.84,-85.286 -10.942,0 c -0.343,1.079 -1.043,4.723 -1.578,5.723 -0.89,0.953 -0.832,2.223 -1.543,3.383 -1.601,4.406 -2.758,8.992 -4.597,13.297 -0.485,1.597 -1.469,3.035 -1.145,4.773 l -34.437,0 -10.012,-27.176 z m 13.418,34.313 14.125,38.797 14.121,-38.797 -28.246,0 z" /><path
       inkscape:connector-curvature="0"
       id="path4179"
       style="fill:#696969;fill-opacity:1;fill-rule:nonzero;stroke:none"
       d="m 57.828,78.807 3.957,0 0,-21.719 c 0,-3.109 -1.082,-5.582 -3.25,-7.422 -2.168,-1.836 -5.066,-2.753 -8.691,-2.753 -3.66,0 -6.543,0.91 -8.645,2.73 -2.105,1.824 -3.156,4.305 -3.156,7.445 l 0,21.719 3.91,0 0,-21.719 c 0,-2.246 0.715,-3.925 2.141,-5.043 1.445,-1.113 3.363,-1.672 5.75,-1.672 2.48,0 4.426,0.598 5.84,1.79 1.429,1.195 2.144,2.835 2.144,4.925 l 0,21.719 m 11.934,-9.711 3.25,0 0,-3.719 c 0.988,1.555 2.05,2.668 3.179,3.344 1.149,0.676 2.551,1.012 4.219,1.012 2.133,0 3.84,-0.551 5.11,-1.649 1.273,-1.097 1.91,-2.566 1.91,-4.406 l 0,-16.793 -3.512,0 0,15.383 c 0,1.348 -0.414,2.418 -1.25,3.203 -0.816,0.785 -1.922,1.176 -3.32,1.176 -1.821,0 -3.282,-0.684 -4.379,-2.047 -1.102,-1.367 -1.653,-3.18 -1.653,-5.441 l 0,-12.274 -3.554,0 0,22.211 m 28.676,8.719 0,-4.477 -3.559,0 0,4.477 3.559,0 m 0.023,-8.719 0,-22.211 -3.531,0 0,22.211 3.531,0 M 115,46.885 l -3.887,0 -7.797,22.211 3.981,0 5.933,-18.019 6.293,18.019 3.981,0 L 115,46.885 m 32.035,10.883 -16.394,0 c 0.031,-1.117 0.125,-2.027 0.281,-2.734 0.172,-0.707 0.473,-1.371 0.894,-2 1.227,-1.934 3.016,-2.899 5.372,-2.899 2.859,0 4.789,1.485 5.792,4.453 l 3.582,0 c -0.457,-2.402 -1.523,-4.289 -3.203,-5.652 -1.664,-1.367 -3.48,-2.051 -6.312,-2.051 -2.836,0 -5.59,1.043 -7.399,3.133 -1.789,2.105 -2.683,4.977 -2.683,8.621 0,3.66 0.918,6.578 2.754,8.762 1.855,2.199 4.328,3.297 7.422,3.297 2.074,0 3.902,-0.516 5.488,-1.555 1.601,-1.035 2.773,-2.465 3.512,-4.285 0.593,-1.602 0.894,-3.965 0.894,-7.09 m -16.277,2.898 12.437,0 c 0.032,0.047 0.047,0.125 0.047,0.235 0,1.836 -0.59,3.383 -1.765,4.64 -1.18,1.27 -2.641,1.907 -4.383,1.907 -1.789,0 -3.258,-0.621 -4.406,-1.86 -1.145,-1.226 -1.79,-2.867 -1.93,-4.922 m 32.332,5.321 c -1.164,-0.016 -2.145,-0.133 -2.945,-0.352 -0.801,-0.203 -1.54,-0.574 -2.215,-1.105 -0.66,-0.535 -1.153,-1.313 -1.485,-2.332 -0.312,-1.008 -0.468,-2.262 -0.468,-3.77 l 0,-11.543 -3.559,0 0,22.211 3.25,0 0,-4.004 c 1.023,1.649 1.996,2.836 2.922,3.559 0.941,0.722 1.996,1.082 3.156,1.082 0.219,0 0.668,-0.039 1.344,-0.117 l 0,-3.629 m 7.215,-11.516 c 0.062,-0.488 0.148,-0.922 0.257,-1.297 0.11,-0.363 0.29,-0.746 0.543,-1.156 0.25,-0.406 0.555,-0.734 0.918,-0.988 0.375,-0.25 0.879,-0.461 1.508,-0.637 0.629,-0.172 1.36,-0.258 2.192,-0.258 1.539,0 2.785,0.313 3.742,0.942 0.961,0.644 1.437,1.492 1.437,2.546 0,0.801 -0.265,1.434 -0.8,1.907 -0.532,0.488 -1.422,0.886 -2.661,1.203 l -3.273,0.777 c -2.625,0.625 -4.461,1.418 -5.512,2.379 -1.039,0.957 -1.554,2.301 -1.554,4.027 0,2.055 0.777,3.696 2.332,4.922 1.554,1.242 3.617,1.86 6.195,1.86 2.574,0 4.551,-0.586 5.933,-1.766 1.399,-1.176 2.106,-2.867 2.122,-5.062 l -3.723,0 c -0.094,2.386 -1.57,3.578 -4.43,3.578 -1.441,0 -2.597,-0.305 -3.461,-0.918 -0.847,-0.614 -1.273,-1.43 -1.273,-2.45 0,-0.769 0.324,-1.406 0.969,-1.91 0.64,-0.5 1.687,-0.925 3.132,-1.269 l 3.391,-0.778 c 2.215,-0.55 3.816,-1.312 4.805,-2.285 0.988,-0.972 1.484,-2.285 1.484,-3.933 0,-2.137 -0.832,-3.84 -2.496,-5.114 -1.648,-1.269 -3.871,-1.906 -6.668,-1.906 -2.902,0 -5.086,0.621 -6.547,1.86 -1.461,1.242 -2.23,3.148 -2.308,5.726 l 3.746,0 m 23.554,23.344 0,-4.477 -3.558,0 0,4.477 3.558,0 m 0.024,-8.719 0,-22.211 -3.535,0 0,22.211 3.535,0 m 25.687,9.684 0,-30.93 -3.109,0 0,2.945 c -0.941,-1.382 -1.977,-2.379 -3.109,-2.992 -1.114,-0.613 -2.442,-0.918 -3.981,-0.918 -2.984,0 -5.34,1.082 -7.066,3.25 -1.727,2.168 -2.59,5.121 -2.59,8.856 0,3.55 0.863,6.386 2.59,8.504 1.726,2.136 4.035,3.203 6.925,3.203 3.047,0 5.332,-1.145 6.856,-3.438 l 0,11.52 3.484,0 m -9.703,-11.379 c -1.949,0 -3.512,-0.793 -4.687,-2.379 -1.18,-1.57 -1.77,-3.652 -1.77,-6.242 0,-2.59 0.59,-4.68 1.77,-6.266 1.191,-1.57 2.761,-2.355 4.711,-2.355 1.867,0 3.367,0.777 4.496,2.332 1.133,1.57 1.699,3.644 1.699,6.218 0,2.653 -0.566,4.766 -1.699,6.336 -1.129,1.571 -2.637,2.356 -4.52,2.356 m 17.293,-3.887 c 0.031,1.149 0.235,2.16 0.613,3.039 0.391,0.879 0.872,1.57 1.438,2.074 0.562,0.516 1.246,0.934 2.047,1.246 0.801,0.332 1.578,0.551 2.332,0.661 0.754,0.109 1.562,0.164 2.426,0.164 2.75,0 4.832,-0.516 6.242,-1.555 1.43,-1.02 2.144,-2.52 2.144,-4.496 l 0,-13.074 c 0,-0.551 0.164,-0.981 0.496,-1.297 0.329,-0.297 0.801,-0.446 1.414,-0.446 0.25,0 0.493,0.04 0.731,0.118 l 0,-2.688 c -0.93,-0.25 -1.731,-0.375 -2.402,-0.375 -1.149,0 -2.012,0.266 -2.594,0.801 -0.567,0.519 -0.91,1.336 -1.035,2.449 -1.242,-1.144 -2.465,-1.969 -3.676,-2.472 -1.191,-0.52 -2.063,-0.778 -3.887,-0.778 -1.82,0 -4.019,0.59 -5.324,1.766 -1.301,1.179 -1.953,2.781 -1.953,4.804 0,2.481 0.863,4.243 2.59,5.278 1.195,0.722 3.226,1.289 6.101,1.695 0.41,0.047 1.188,0.149 2.332,0.309 1.399,0.172 2.364,0.437 2.899,0.801 0.531,0.359 0.801,0.917 0.801,1.671 l 0,0.918 c 0,1.051 -0.434,1.868 -1.297,2.45 -0.864,0.582 -2.09,0.871 -3.676,0.871 -1.664,0 -2.91,-0.321 -3.742,-0.965 -0.836,-0.629 -1.321,-1.617 -1.461,-2.969 l -3.559,0 m 7.067,-13.543 c 1.949,0 3.543,0.52 4.781,1.555 1.258,1.035 1.887,2.152 1.887,3.344 l 0,3.957 c -0.614,-0.282 -1.454,-0.516 -2.52,-0.707 -1.055,-0.172 -2.043,-0.329 -2.969,-0.469 -0.91,-0.141 -1.808,-0.348 -2.687,-0.613 -0.864,-0.25 -1.555,-0.668 -2.071,-1.25 -0.519,-0.579 -0.777,-1.333 -0.777,-2.262 0,-1.113 0.375,-1.985 1.129,-2.613 0.77,-0.629 1.844,-0.942 3.227,-0.942 m 36.5,28.809 0,-30.93 -3.11,0 0,2.945 c -0.941,-1.382 -1.976,-2.379 -3.109,-2.992 -1.113,-0.613 -1.719,-0.918 -3.981,-0.918 -2.261,0 -5.339,1.082 -7.066,3.25 -1.727,2.168 -2.59,5.121 -2.59,8.856 0,3.55 0.863,6.386 2.59,8.504 1.727,2.136 4.035,3.203 6.926,3.203 3.047,0 5.332,-1.145 6.855,-3.438 l 0,11.52 3.485,0 m -9.704,-11.379 c -1.949,0 -3.511,-0.793 -4.687,-2.379 -1.18,-1.57 -1.766,-3.652 -1.766,-6.242 0,-2.59 0.586,-4.68 1.766,-6.266 1.191,-1.57 2.762,-2.355 4.711,-2.355 1.867,0 3.367,0.777 4.5,2.332 1.129,1.57 1.695,3.644 1.695,6.218 0,2.653 -0.566,4.766 -1.695,6.336 -1.133,1.571 -2.641,2.356 -4.524,2.356 M 87.777,33.557 l 0,-30.926 -3.109,0 0,2.946 C 83.727,4.194 82.691,3.194 81.559,2.584 80.445,1.971 79.117,1.666 77.578,1.666 c -2.984,0 -5.34,1.082 -7.066,3.25 -1.727,2.164 -2.59,5.118 -2.59,8.856 0,3.551 0.863,6.383 2.59,8.504 1.726,2.137 4.035,3.203 6.926,3.203 3.046,0 5.332,-1.145 6.855,-3.438 l 0,11.516 3.484,0 M 78.074,22.182 c -1.949,0 -3.512,-0.793 -4.687,-2.379 -1.18,-1.57 -1.766,-3.652 -1.766,-6.242 0,-2.594 0.586,-4.68 1.766,-6.266 1.191,-1.57 2.761,-2.355 4.711,-2.355 1.867,0 3.367,0.777 4.5,2.332 1.129,1.57 1.695,3.641 1.695,6.219 0,2.652 -0.566,4.765 -1.695,6.336 -1.133,1.57 -2.641,2.355 -4.524,2.355 m 35.512,-9.637 -16.395,0 c 0.032,-1.113 0.125,-2.023 0.286,-2.73 0.171,-0.707 0.468,-1.375 0.894,-2.004 1.223,-1.93 3.016,-2.895 5.371,-2.895 2.856,0 4.789,1.485 5.793,4.45 l 3.582,0 C 112.66,6.963 111.594,5.08 109.91,3.713 c -1.664,-1.367 -3.765,-2.047 -6.312,-2.047 -3.125,0 -5.59,1.043 -7.395,3.133 -1.789,2.102 -2.687,4.977 -2.687,8.621 0,3.657 0.922,6.578 2.757,8.762 1.852,2.199 4.329,3.297 7.422,3.297 2.071,0 3.903,-0.52 5.489,-1.555 1.601,-1.035 2.769,-2.465 3.507,-4.285 0.598,-1.601 0.895,-3.969 0.895,-7.094 m -16.277,2.899 12.437,0 c 0.031,0.047 0.047,0.125 0.047,0.238 0,1.836 -0.586,3.383 -1.766,4.637 -1.175,1.273 -2.636,1.91 -4.382,1.91 -1.79,0 -3.258,-0.621 -4.403,-1.859 -1.148,-1.227 -1.793,-2.868 -1.933,-4.926 m 33.722,2.285 c 0,0.973 0.063,1.949 0.188,2.922 0.125,0.988 0.336,2.023 0.636,3.109 0.313,1.098 0.707,2.129 1.176,3.086 0.473,0.973 1.078,1.906 1.813,2.801 0.754,0.898 1.605,1.66 2.547,2.285 0.957,0.645 2.093,1.156 3.414,1.531 1.336,0.395 2.789,0.59 4.359,0.59 6.734,0 10.707,-3.367 11.918,-10.105 l -4.051,0 c -0.441,2.23 -1.328,3.886 -2.664,4.968 -1.332,1.102 -3.226,1.653 -5.676,1.653 -2.984,0 -5.347,-1.149 -7.089,-3.442 -1.743,-2.277 -2.614,-5.394 -2.614,-9.351 0,-3.879 0.903,-6.957 2.707,-9.235 1.821,-2.277 4.266,-3.414 7.328,-3.414 2.543,0 4.489,0.715 5.84,2.145 1.367,1.445 2.293,3.656 2.782,6.641 l 4.074,0 C 156.762,5.748 152.52,1.666 144.996,1.666 c -1.789,0 -3.422,0.25 -4.898,0.75 -1.477,0.489 -2.707,1.157 -3.7,2.004 -0.988,0.864 -1.843,1.821 -2.566,2.875 -0.723,1.067 -1.277,2.223 -1.672,3.461 -0.39,1.242 -0.683,2.426 -0.871,3.559 -0.172,1.144 -0.258,2.285 -0.258,3.414 m 41.594,16.23 4.805,0 -6.313,-6.265 -2.543,0 4.051,6.265 M 162.59,18.295 c 0.031,1.145 0.234,2.16 0.613,3.039 0.391,0.879 0.871,1.571 1.438,2.071 0.562,0.519 1.246,0.937 2.047,1.25 0.8,0.328 1.578,0.55 2.332,0.66 0.753,0.109 1.562,0.164 2.425,0.164 2.75,0 4.828,-0.52 6.243,-1.555 1.429,-1.019 2.144,-2.519 2.144,-4.5 l 0,-13.07 c 0,-0.551 0.164,-0.984 0.496,-1.297 0.328,-0.301 0.801,-0.449 1.41,-0.449 0.254,0 0.496,0.039 0.731,0.117 l 0,-2.684 c -0.926,-0.25 -1.727,-0.375 -2.403,-0.375 -1.144,0 -2.007,0.266 -2.589,0.801 -0.567,0.516 -0.911,1.332 -1.036,2.449 -1.242,-1.148 -2.464,-1.972 -3.675,-2.472 -1.196,-0.52 -2.489,-0.778 -3.887,-0.778 -2.246,0 -4.02,0.586 -5.324,1.766 -1.305,1.176 -1.953,2.777 -1.953,4.805 0,2.48 0.863,4.238 2.589,5.277 1.192,0.723 3.227,1.285 6.102,1.695 0.406,0.047 1.184,0.149 2.332,0.305 1.398,0.176 2.363,0.441 2.895,0.801 0.535,0.363 0.804,0.918 0.804,1.672 l 0,0.922 c 0,1.05 -0.433,1.867 -1.297,2.449 -0.863,0.582 -2.089,0.871 -3.675,0.871 -1.664,0 -2.914,-0.324 -3.747,-0.965 -0.832,-0.629 -1.316,-1.617 -1.46,-2.969 l -3.555,0 m 7.066,-13.547 c 1.946,0 3.543,0.52 4.782,1.555 1.257,1.039 1.886,2.152 1.886,3.348 l 0,3.957 c -0.613,-0.285 -1.453,-0.52 -2.523,-0.707 -1.051,-0.172 -2.039,-0.328 -2.969,-0.473 -0.91,-0.14 -1.805,-0.344 -2.684,-0.609 -0.863,-0.254 -1.554,-0.668 -2.074,-1.25 -0.515,-0.582 -0.777,-1.336 -0.777,-2.262 0,-1.113 0.379,-1.988 1.133,-2.613 0.769,-0.629 1.843,-0.946 3.226,-0.946 m 37.739,28.809 0,-30.926 -3.11,0 0,2.946 c -0.945,-1.383 -1.98,-2.383 -3.109,-2.993 -1.117,-0.613 -2.442,-0.918 -3.981,-0.918 -2.984,0 -5.34,1.082 -7.07,3.25 -1.727,2.164 -2.59,5.118 -2.59,8.856 0,3.551 0.863,6.383 2.59,8.504 1.73,2.137 4.039,3.203 6.926,3.203 3.047,0 5.332,-1.145 6.855,-3.438 l 0,11.516 3.489,0 m -9.707,-11.375 c -1.946,0 -3.508,-0.793 -4.688,-2.379 -1.176,-1.57 -1.766,-3.652 -1.766,-6.242 0,-2.594 0.59,-4.68 1.766,-6.266 1.195,-1.57 2.766,-2.355 4.711,-2.355 1.871,0 3.371,0.777 4.5,2.332 1.129,1.57 1.695,3.641 1.695,6.219 0,2.652 -0.566,4.765 -1.695,6.336 -1.129,1.57 -2.637,2.355 -4.523,2.355 m 21.394,10.41 0,-4.476 -3.559,0 0,4.476 3.559,0 m 0.023,-8.715 0,-22.211 -3.535,0 0,22.211 3.535,0 m 21.833,0 0,-3.132 -13.168,-15.969 13.777,0 0,-3.11 -18.09,0 0,3.157 13.285,15.945 -12.367,0 0,3.109 16.563,0" /></g></svg>