<?xml version="1.0" standalone="yes"?>
<svg version="1.1" xmlns="http://www.w3.org/2000/svg" xmlns:xlink="http://www.w3.org/1999/xlink" xmlns:ev="http://www.w3.org/2001/xml-events" width="350" height="350">
<path style="fill:#ffffff; stroke:none;" d="M0 0L0 350L350 350L350 0L0 0z"/>
<path style="fill:#000000; stroke:none;" d="M10 10L10 80L80 80L80 10L10 10M90 10L90 30L110 30L110 40L120 40L120 60L130 60L130 80L140 80L140 70L150 70L150 80L160 80L160 70L170 70L170 90L160 90L160 100L170 100L170 90L180 90L180 110L150 110L150 90L120 90L120 70L110 70L110 90L120 90L120 100L140 100L140 110L110 110L110 100L100 100L100 90L70 90L70 100L60 100L60 110L70 110L70 120L50 120L50 100L40 100L40 110L30 110L30 90L20 90L20 100L10 100L10 110L30 110L30 120L10 120L10 140L20 140L20 130L30 130L30 120L50 120L50 140L80 140L80 150L70 150L70 160L60 160L60 150L40 150L40 140L30 140L30 150L40 150L40 160L30 160L30 170L20 170L20 160L10 160L10 170L20 170L20 180L10 180L10 200L20 200L20 220L10 220L10 260L30 260L30 250L20 250L20 230L30 230L30 220L40 220L40 210L70 210L70 220L50 220L50 230L40 230L40 250L60 250L60 230L70 230L70 240L80 240L80 230L90 230L90 240L100 240L100 230L120 230L120 250L130 250L130 260L140 260L140 270L130 270L130 280L120 280L120 290L110 290L110 270L120 270L120 260L110 260L110 270L100 270L100 260L90 260L90 250L70 250L70 260L90 260L90 280L100 280L100 290L110 290L110 300L100 300L100 320L90 320L90 330L110 330L110 340L120 340L120 330L110 330L110 320L130 320L130 310L140 310L140 300L150 300L150 290L160 290L160 300L180 300L180 310L170 310L170 330L160 330L160 310L150 310L150 320L140 320L140 340L150 340L150 330L160 330L160 340L190 340L190 320L180 320L180 310L200 310L200 320L210 320L210 310L200 310L200 300L240 300L240 310L230 310L230 330L240 330L240 310L250 310L250 340L260 340L260 310L270 310L270 300L290 300L290 310L280 310L280 320L290 320L290 330L280 330L280 340L300 340L300 320L310 320L310 330L320 330L320 340L330 340L330 330L320 330L320 320L340 320L340 310L330 310L330 300L340 300L340 290L330 290L330 270L340 270L340 260L310 260L310 290L300 290L300 250L320 250L320 240L330 240L330 230L320 230L320 240L300 240L300 250L280 250L280 240L290 240L290 230L310 230L310 210L340 210L340 160L330 160L330 150L340 150L340 140L320 140L320 150L300 150L300 140L290 140L290 130L330 130L330 110L320 110L320 100L340 100L340 90L320 90L320 100L280 100L280 110L270 110L270 90L250 90L250 80L260 80L260 60L240 60L240 40L250 40L250 50L260 50L260 30L220 30L220 20L240 20L240 10L220 10L220 20L210 20L210 60L190 60L190 90L180 90L180 40L170 40L170 30L180 30L180 20L190 20L190 30L200 30L200 20L190 20L190 10L180 10L180 20L170 20L170 10L160 10L160 30L150 30L150 20L140 20L140 30L120 30L120 20L130 20L130 10L120 10L120 20L100 20L100 10L90 10M270 10L270 80L340 80L340 10L270 10z"/>
<path style="fill:#ffffff; stroke:none;" d="M20 20L20 70L70 70L70 20L20 20M280 20L280 70L330 70L330 20L280 20z"/>
<path style="fill:#000000; stroke:none;" d="M30 30L30 60L60 60L60 30L30 30M290 30L290 60L320 60L320 30L290 30z"/>
<path style="fill:#ffffff; stroke:none;" d="M130 40L130 60L150 60L150 70L160 70L160 60L150 60L150 50L160 50L160 40L150 40L150 50L140 50L140 40L130 40z"/>
<path style="fill:#000000; stroke:none;" d="M190 40L190 50L200 50L200 40L190 40z"/>
<path style="fill:#ffffff; stroke:none;" d="M220 40L220 50L230 50L230 40L220 40z"/>
<path style="fill:#000000; stroke:none;" d="M100 50L100 60L110 60L110 50L100 50z"/>
<path style="fill:#ffffff; stroke:none;" d="M210 60L210 70L200 70L200 80L210 80L210 70L220 70L220 100L210 100L210 110L190 110L190 120L210 120L210 140L200 140L200 130L190 130L190 140L200 140L200 150L190 150L190 170L160 170L160 180L150 180L150 170L140 170L140 160L130 160L130 170L110 170L110 150L120 150L120 140L130 140L130 150L160 150L160 140L170 140L170 150L180 150L180 120L170 120L170 130L160 130L160 140L150 140L150 110L140 110L140 130L130 130L130 120L120 120L120 140L110 140L110 110L100 110L100 100L70 100L70 110L80 110L80 120L70 120L70 130L80 130L80 140L90 140L90 150L80 150L80 160L70 160L70 170L40 170L40 190L30 190L30 210L40 210L40 190L50 190L50 200L60 200L60 180L70 180L70 190L90 190L90 200L100 200L100 220L90 220L90 230L100 230L100 220L140 220L140 240L130 240L130 250L140 250L140 240L150 240L150 280L160 280L160 270L170 270L170 290L180 290L180 280L190 280L190 300L200 300L200 280L210 280L210 290L220 290L220 280L230 280L230 270L220 270L220 280L210 280L210 270L200 270L200 260L210 260L210 250L200 250L200 260L190 260L190 270L180 270L180 260L160 260L160 230L170 230L170 250L190 250L190 240L180 240L180 230L170 230L170 210L160 210L160 230L150 230L150 200L160 200L160 180L170 180L170 200L180 200L180 220L190 220L190 230L210 230L210 240L220 240L220 260L240 260L240 270L250 270L250 230L270 230L270 240L280 240L280 230L290 230L290 210L280 210L280 230L270 230L270 220L260 220L260 210L270 210L270 190L260 190L260 170L250 170L250 140L240 140L240 130L260 130L260 150L270 150L270 180L280 180L280 200L300 200L300 180L320 180L320 190L330 190L330 160L320 160L320 170L300 170L300 160L290 160L290 140L280 140L280 150L270 150L270 130L280 130L280 120L290 120L290 110L280 110L280 120L260 120L260 100L250 100L250 110L240 110L240 120L230 120L230 110L220 110L220 100L240 100L240 90L230 90L230 70L240 70L240 80L250 80L250 70L240 70L240 60L210 60z"/>
<path style="fill:#000000; stroke:none;" d="M90 70L90 80L100 80L100 70L90 70z"/>
<path style="fill:#ffffff; stroke:none;" d="M190 90L190 100L200 100L200 90L190 90z"/>
<path style="fill:#000000; stroke:none;" d="M90 110L90 120L80 120L80 130L100 130L100 110L90 110z"/>
<path style="fill:#ffffff; stroke:none;" d="M300 110L300 120L310 120L310 110L300 110z"/>
<path style="fill:#000000; stroke:none;" d="M220 120L220 150L210 150L210 180L200 180L200 170L190 170L190 180L180 180L180 200L190 200L190 180L200 180L200 210L190 210L190 220L200 220L200 210L220 210L220 220L230 220L230 210L240 210L240 220L250 220L250 200L260 200L260 190L250 190L250 180L240 180L240 150L230 150L230 120L220 120M100 140L100 150L90 150L90 160L100 160L100 150L110 150L110 140L100 140z"/>
<path style="fill:#ffffff; stroke:none;" d="M220 150L220 190L210 190L210 200L220 200L220 210L230 210L230 200L220 200L220 190L240 190L240 180L230 180L230 150L220 150z"/>
<path style="fill:#000000; stroke:none;" d="M280 160L280 180L300 180L300 170L290 170L290 160L280 160M70 170L70 180L80 180L80 170L70 170M90 180L90 190L100 190L100 200L110 200L110 210L140 210L140 200L150 200L150 190L140 190L140 180L120 180L120 190L130 190L130 200L110 200L110 190L100 190L100 180L90 180z"/>
<path style="fill:#ffffff; stroke:none;" d="M70 200L70 210L80 210L80 200L70 200M70 220L70 230L80 230L80 220L70 220z"/>
<path style="fill:#000000; stroke:none;" d="M220 230L220 240L230 240L230 250L240 250L240 230L220 230z"/>
<path style="fill:#ffffff; stroke:none;" d="M260 260L260 290L290 290L290 260L260 260z"/>
<path style="fill:#000000; stroke:none;" d="M10 270L10 340L80 340L80 270L10 270M190 270L190 280L200 280L200 270L190 270M270 270L270 280L280 280L280 270L270 270z"/>
<path style="fill:#ffffff; stroke:none;" d="M20 280L20 330L70 330L70 280L20 280M130 280L130 290L120 290L120 300L110 300L110 310L120 310L120 300L140 300L140 280L130 280M240 280L240 300L250 300L250 310L260 310L260 300L250 300L250 280L240 280z"/>
<path style="fill:#000000; stroke:none;" d="M30 290L30 320L60 320L60 290L30 290z"/>
<path style="fill:#ffffff; stroke:none;" d="M310 290L310 300L320 300L320 290L310 290M310 310L310 320L320 320L320 310L310 310z"/>
</svg>
