<?xml version="1.0" encoding="UTF-8" standalone="no"?>
<!-- Created with Inkscape (http://www.inkscape.org/) -->

<svg
   xmlns:dc="http://purl.org/dc/elements/1.1/"
   xmlns:cc="http://creativecommons.org/ns#"
   xmlns:rdf="http://www.w3.org/1999/02/22-rdf-syntax-ns#"
   xmlns:svg="http://www.w3.org/2000/svg"
   xmlns="http://www.w3.org/2000/svg"
   xmlns:xlink="http://www.w3.org/1999/xlink"
   xmlns:sodipodi="http://sodipodi.sourceforge.net/DTD/sodipodi-0.dtd"
   xmlns:inkscape="http://www.inkscape.org/namespaces/inkscape"
   width="77.916924"
   height="21.070957"
   id="svg3076"
   version="1.1"
   inkscape:version="0.47 r22583"
   sodipodi:docname="logotipo.svg"
   inkscape:export-filename="/home/antonio/Documentos/actividades-fm/logotipo/logotipo.png"
   inkscape:export-xdpi="147.85001"
   inkscape:export-ydpi="147.85001">
  <defs
     id="defs3078">
    <inkscape:perspective
       sodipodi:type="inkscape:persp3d"
       inkscape:vp_x="0 : 526.18109 : 1"
       inkscape:vp_y="0 : 1000 : 0"
       inkscape:vp_z="744.09448 : 526.18109 : 1"
       inkscape:persp3d-origin="372.04724 : 350.78739 : 1"
       id="perspective3084" />
    <inkscape:perspective
       id="perspective3064"
       inkscape:persp3d-origin="0.5 : 0.33333333 : 1"
       inkscape:vp_z="1 : 0.5 : 1"
       inkscape:vp_y="0 : 1000 : 0"
       inkscape:vp_x="0 : 0.5 : 1"
       sodipodi:type="inkscape:persp3d" />
    <inkscape:perspective
       id="perspective2892"
       inkscape:persp3d-origin="0.5 : 0.33333333 : 1"
       inkscape:vp_z="1 : 0.5 : 1"
       inkscape:vp_y="0 : 1000 : 0"
       inkscape:vp_x="0 : 0.5 : 1"
       sodipodi:type="inkscape:persp3d" />
  </defs>
  <sodipodi:namedview
     id="base"
     pagecolor="#ffffff"
     bordercolor="#666666"
     borderopacity="1.0"
     inkscape:pageopacity="0.0"
     inkscape:pageshadow="2"
     inkscape:zoom="4.9090748"
     inkscape:cx="39.694912"
     inkscape:cy="17.497451"
     inkscape:document-units="px"
     inkscape:current-layer="layer1"
     showgrid="false"
     inkscape:window-width="1920"
     inkscape:window-height="1029"
     inkscape:window-x="0"
     inkscape:window-y="24"
     inkscape:window-maximized="1"
     showguides="true"
     inkscape:guide-bbox="true">
    <sodipodi:guide
       orientation="0,1"
       position="62.312497,8.9046657"
       id="guide2821" />
    <sodipodi:guide
       orientation="0,1"
       position="61.812497,7.2171658"
       id="guide2823" />
    <sodipodi:guide
       orientation="0,1"
       position="50.31498,0.12935674"
       id="guide2824" />
  </sodipodi:namedview>
  <metadata
     id="metadata3081">
    <rdf:RDF>
      <cc:Work
         rdf:about="">
        <dc:format>image/svg+xml</dc:format>
        <dc:type
           rdf:resource="http://purl.org/dc/dcmitype/StillImage" />
        <dc:title></dc:title>
      </cc:Work>
    </rdf:RDF>
  </metadata>
  <g
     inkscape:label="Capa 1"
     inkscape:groupmode="layer"
     id="layer1"
     transform="translate(-528.4701,-489.83419)">
    <path
       inkscape:connector-curvature="0"
       id="path3072-2-0-9-6-1-9-1-6-4-8-8-0"
       style="fill:#005673;stroke:#005673;stroke-width:0.57797295000000004;stroke-linecap:butt;stroke-linejoin:miter;stroke-miterlimit:4;stroke-opacity:1;stroke-dasharray:none;display:inline;fill-opacity:1"
       d="m 574.99256,490.12671 c 0,0 0.32445,2.04347 0.32445,2.04347 0,0 -1.63567,0 -1.63567,0 0,0 -0.29392,-2.047 -0.29392,-2.047 0,0 -2.32131,0 -2.32131,0 0,0 0,2.047 0,2.047 0,0 -1.6925,0 -1.6925,0 0,0 0,-2.047 0,-2.047 l -2.26003,0 c 0,0 -0.31758,2.047 -0.31758,2.047 0,0 -1.61269,0 -1.61269,0 0,0 0.34146,-2.047 0.34146,-2.047 l -0.70156,0 -4.34912,20.49298 c 0,0 2.47028,0 2.47028,0 0.75449,-3.81604 1.45908,-8.47673 2.14684,-12.61164 4.18938,-3.66041 6.35503,-3.61466 10.25706,0 0,0 2.23219,12.61164 2.23219,12.61164 0,0 2.39615,0 2.39615,0 l -4.30105,-20.48945 -0.68295,0 -5e-5,0 z"
       sodipodi:nodetypes="cccccccccccccccccccccc" />
    <text
       xml:space="preserve"
       style="font-size:20px;font-style:normal;font-variant:normal;font-weight:normal;font-stretch:normal;text-align:start;line-height:125%;writing-mode:lr-tb;text-anchor:start;fill:#717579;fill-opacity:1;stroke:none;display:inline;font-family:DejaVu Sans;-inkscape-font-specification:DejaVu Sans"
       x="582.33429"
       y="510.62195"
       id="text2816-3-9-0-3-3-1-6-7-8-3-1"
       sodipodi:linespacing="125%"><tspan
         sodipodi:role="line"
         id="tspan2818-7-3-6-4-3-9-5-6-9-1-3"
         x="582.33429"
         y="510.62195">SE</tspan></text>
    <path
       inkscape:connector-curvature="0"
       style="fill:#00516e;stroke:#005673;stroke-width:1.65012479000000001;stroke-linecap:butt;stroke-linejoin:miter;stroke-miterlimit:4;stroke-opacity:1;stroke-dasharray:none;fill-opacity:1"
       d="m 562.2484,502.84134 15.17236,0"
       id="path3878-5-7-8-7"
       sodipodi:nodetypes="cc" />
    <g
       transform="translate(488.97535,386.33393)"
       id="g3632-7-0-5-7"
       style="fill:#005673;fill-opacity:1">
      <path
         inkscape:connector-curvature="0"
         id="path3587-3-2-4-2"
         style="font-size:20px;font-style:normal;font-weight:normal;fill:#005673;fill-opacity:1;stroke:none;font-family:Bitstream Vera Sans"
         d="m 67.822708,110.83099 0,2.08007 c -0.664075,-0.61847 -1.373709,-1.08071 -2.128906,-1.38671 -0.748708,-0.30598 -1.546233,-0.45898 -2.392578,-0.45899 -1.666674,1e-5 -2.942714,0.51108 -3.828125,1.5332 -0.885421,1.01564 -1.328128,2.48699 -1.328125,4.41407 -3e-6,1.92057 0.442704,3.39193 1.328125,4.41406 0.885411,1.01563 2.161451,1.52344 3.828125,1.52344 0.846345,0 1.64387,-0.153 2.392578,-0.45899 0.755197,-0.30599 1.464831,-0.76822 2.128906,-1.38672 l 0,2.06055 c -0.690116,0.46875 -1.422537,0.82031 -2.197265,1.05469 -0.76824,0.23437 -1.582041,0.35156 -2.441407,0.35156 -2.207037,0 -3.945317,-0.67383 -5.214843,-2.02148 -1.269534,-1.35417 -1.904298,-3.19987 -1.904297,-5.53711 -10e-7,-2.34374 0.634763,-4.18945 1.904297,-5.53711 1.269526,-1.35416 3.007806,-2.03124 5.214843,-2.03125 0.872387,1e-5 1.692699,0.1172 2.460938,0.35156 0.774728,0.22788 1.500639,0.57293 2.177734,1.03516" />
    </g>
    <g
       transform="translate(396.3417,84.301821)"
       style="font-size:20px;font-style:normal;font-variant:normal;font-weight:normal;font-stretch:normal;fill:#dd6c10;fill-opacity:1;stroke:none;font-family:DejaVu Serif;-inkscape-font-specification:DejaVu Serif"
       id="text3099-6">
      <path
         inkscape:connector-curvature="0"
         d="m 133.99364,412.78497 c 0,0 -1.86524,-0.003 -1.86524,0 l 0,-1.04492 7.09209,0 0,1.04492 -1.86523,0 0,7.53907 c -10e-6,1.86198 0.30272,3.16081 0.9082,3.89648 0.61197,0.73568 1.6634,1.10352 3.1543,1.10352 1.49087,0 2.53905,-0.36784 3.14453,-1.10352 0.61196,-0.73567 0.91795,-2.0345 0.91797,-3.89648 l 0,-7.53907 -1.86524,0 0,-1.04492 4.92188,0 0,1.04492 -1.85547,0 0,7.73438 c -2e-5,2.22005 -0.42645,3.78906 -1.2793,4.70703 -0.85288,0.91797 -2.30143,1.37695 -4.3457,1.37695 -2.04427,0 -4.64228,-0.46225 -5.51142,-1.38672 -0.86914,-0.92448 -1.55137,-2.30468 -1.55137,-4.69726 l 0,-7.73438"
         style="font-family:DejaVu Serif;-inkscape-font-specification:DejaVu Serif;fill:#dd6c10;fill-opacity:1"
         id="path3104-4"
         sodipodi:nodetypes="czcccccsssccccccccszzzc" />
    </g>
  </g>
</svg>
