<?xml version="1.0" encoding="UTF-8" standalone="no"?>
<!-- Generated by graphviz version 2.26.3 (20100126.1600)
 -->

<!-- Title: PSL Pages: 1 -->

<svg
   xmlns:dc="http://purl.org/dc/elements/1.1/"
   xmlns:cc="http://creativecommons.org/ns#"
   xmlns:rdf="http://www.w3.org/1999/02/22-rdf-syntax-ns#"
   xmlns:svg="http://www.w3.org/2000/svg"
   xmlns="http://www.w3.org/2000/svg"
   xmlns:sodipodi="http://sodipodi.sourceforge.net/DTD/sodipodi-0.dtd"
   xmlns:inkscape="http://www.inkscape.org/namespaces/inkscape"
   width="665pt"
   height="660pt"
   viewBox="0.00 0.00 665.00 660.00"
   id="svg6326"
   version="1.1"
   inkscape:version="0.48.1 r9760"
   sodipodi:docname="psl.svg">
  <metadata
     id="metadata6609">
    <rdf:RDF>
      <cc:Work
         rdf:about="">
        <dc:format>image/svg+xml</dc:format>
        <dc:type
           rdf:resource="http://purl.org/dc/dcmitype/StillImage" />
      </cc:Work>
    </rdf:RDF>
  </metadata>
  <defs
     id="defs6607" />
  <sodipodi:namedview
     pagecolor="#ffffff"
     bordercolor="#666666"
     borderopacity="1"
     objecttolerance="10"
     gridtolerance="10"
     guidetolerance="10"
     inkscape:pageopacity="0"
     inkscape:pageshadow="2"
     inkscape:window-width="1920"
     inkscape:window-height="1056"
     id="namedview6605"
     showgrid="false"
     showguides="true"
     inkscape:guide-bbox="true"
     inkscape:zoom="0.9873782"
     inkscape:cx="443.19346"
     inkscape:cy="386.29997"
     inkscape:window-x="0"
     inkscape:window-y="24"
     inkscape:window-maximized="1"
     inkscape:current-layer="svg6326">
    <sodipodi:guide
       orientation="1,0"
       position="57.291667,451.17188"
       id="guide7535" />
    <sodipodi:guide
       orientation="1,0"
       position="789.19271,403.90625"
       id="guide7537" />
    <sodipodi:guide
       orientation="0,1"
       position="823.56771,70.182292"
       id="guide7539" />
  </sodipodi:namedview>
  <g
     class="node"
     id="node1"
     transform="translate(4,656)">
    <title
       id="title6334">psl_core</title>
    <ellipse
       style="fill:#ff9999;stroke:#000000"
       sodipodi:ry="18.3848"
       sodipodi:rx="56.067902"
       sodipodi:cy="-19"
       sodipodi:cx="403"
       d="m 459.0679,-19 c 0,10.1536446 -25.10245,18.38479996 -56.0679,18.38479996 -30.96545,0 -56.0679,-8.23115536 -56.0679,-18.38479996 0,-10.153645 25.10245,-18.3848 56.0679,-18.3848 30.96545,0 56.0679,8.231155 56.0679,18.3848 z"
       id="ellipse6336"
       ry="18.3848"
       rx="56.067902"
       cy="-19"
       cx="403" />
    <text
       style="font-size:14px;text-anchor:middle;font-family:'Times Roman,serif'"
       id="text6338"
       font-size="14.00"
       y="-15.4"
       x="403">PSL-Core</text>
  </g>
  <path
     style="fill:#ffff83;fill-opacity:1;stroke:#000000;stroke-width:2;stroke-linecap:butt;stroke-linejoin:miter;stroke-miterlimit:4;stroke-opacity:1;stroke-dasharray:12, 12;stroke-dashoffset:0"
     d="m 57.291667,260.67708 330.859373,0 0,250.65104 220.57292,0 0,243.48959 -551.432293,0 c 1.002956,-169.72832 1.662241,-337.73829 0,-494.14063 z"
     id="path7541"
     inkscape:connector-curvature="0"
     transform="scale(0.8,0.8)"
     sodipodi:nodetypes="ccccccc" />
  <g
     class="node"
     id="node2"
     transform="translate(4,656)">
    <title
       id="title6341">subactivity</title>
    <ellipse
       style="fill:#ffffff;stroke:#000000"
       sodipodi:ry="18.3848"
       sodipodi:rx="73.038803"
       sodipodi:cy="-105"
       sodipodi:cx="245"
       d="m 318.0388,-105 c 0,10.153645 -32.70058,18.3848 -73.0388,18.3848 -40.33822,0 -73.0388,-8.231155 -73.0388,-18.3848 0,-10.15364 32.70058,-18.3848 73.0388,-18.3848 40.33822,0 73.0388,8.23116 73.0388,18.3848 z"
       id="ellipse6343"
       ry="18.3848"
       rx="73.038803"
       cy="-105"
       cx="245" />
    <text
       style="font-size:14px;text-anchor:middle;font-family:'Times Roman,serif'"
       id="text6345"
       font-size="14.00"
       y="-101.4"
       x="245">Subactivities</text>
  </g>
  <g
     class="edge"
     id="edge2"
     transform="translate(4,656)">
    <title
       id="title6348">subactivity-&gt;psl_core</title>
    <path
       style="fill:none;stroke:#000000"
       inkscape:connector-curvature="0"
       id="path6350"
       d="m 275.839,-88.2142 c 25.497,13.8779 61.816,33.6467 89.116,48.5063" />
    <polygon
       style="fill:#000000;stroke:#000000"
       id="polygon6352"
       points="363.383,-36.579 366.729,-42.7273 366.729,-42.7273 373.839,-34.8724 " />
  </g>
  <g
     class="node"
     id="node4"
     transform="translate(4,656)">
    <title
       id="title6355">occtree</title>
    <ellipse
       style="fill:#ffffff;stroke:#000000"
       sodipodi:ry="31.1127"
       sodipodi:rx="67.175102"
       sodipodi:cy="-105"
       sodipodi:cx="403"
       d="m 470.1751,-105 c 0,17.183069 -30.07532,31.1127 -67.1751,31.1127 -37.09978,0 -67.1751,-13.929631 -67.1751,-31.1127 0,-17.18307 30.07532,-31.1127 67.1751,-31.1127 37.09978,0 67.1751,13.92963 67.1751,31.1127 z"
       id="ellipse6357"
       ry="31.1127"
       rx="67.175102"
       cy="-105"
       cx="403" />
    <text
       style="font-size:14px;text-anchor:middle;font-family:'Times Roman,serif'"
       id="text6359"
       font-size="14.00"
       y="-110.4"
       x="403">Occurrence</text>
    <text
       style="font-size:14px;text-anchor:middle;font-family:'Times Roman,serif'"
       id="text6361"
       font-size="14.00"
       y="-92.400002"
       x="403">Trees</text>
  </g>
  <g
     class="edge"
     id="edge4"
     transform="translate(4,656)">
    <title
       id="title6364">occtree-&gt;psl_core</title>
    <path
       style="fill:none;stroke:#000000"
       inkscape:connector-curvature="0"
       id="path6366"
       d="m 403,-73.952 c 0,8.5249 0,17.7307 0,26.1251" />
    <polygon
       style="fill:#000000;stroke:#000000"
       id="polygon6368"
       points="399.5,-47.7403 406.5,-47.7402 406.5,-47.7402 403,-37.7403 " />
  </g>
  <g
     class="node"
     id="node6"
     transform="translate(4,656)">
    <title
       id="title6371">disc_state</title>
    <ellipse
       style="fill:#ffffff;stroke:#000000"
       sodipodi:ry="31.1127"
       sodipodi:rx="51.827599"
       sodipodi:cy="-203"
       sodipodi:cx="425"
       d="m 476.8276,-203 c 0,17.18307 -23.20401,31.1127 -51.8276,31.1127 -28.62359,0 -51.8276,-13.92963 -51.8276,-31.1127 0,-17.18307 23.20401,-31.1127 51.8276,-31.1127 28.62359,0 51.8276,13.92963 51.8276,31.1127 z"
       id="ellipse6373"
       ry="31.1127"
       rx="51.827599"
       cy="-203"
       cx="425" />
    <text
       style="font-size:14px;text-anchor:middle;font-family:'Times Roman,serif'"
       id="text6375"
       font-size="14.00"
       y="-208.39999"
       x="425">Discrete</text>
    <text
       style="font-size:14px;text-anchor:middle;font-family:'Times Roman,serif'"
       id="text6377"
       font-size="14.00"
       y="-190.39999"
       x="425">States</text>
  </g>
  <g
     class="edge"
     id="edge6"
     transform="translate(4,656)">
    <title
       id="title6380">disc_state-&gt;occtree</title>
    <path
       style="fill:none;stroke:#000000"
       inkscape:connector-curvature="0"
       id="path6382"
       d="m 418.099,-172.261 c -1.886,8.401 -3.959,17.639 -5.95,26.505" />
    <polygon
       style="fill:#000000;stroke:#000000"
       id="polygon6384"
       points="408.727,-146.491 415.557,-144.957 415.557,-144.957 409.952,-135.967 " />
  </g>
  <g
     class="node"
     id="node8"
     transform="translate(4,656)">
    <title
       id="title6387">atomic</title>
    <ellipse
       style="fill:#ffffff;stroke:#000000"
       sodipodi:ry="31.1127"
       sodipodi:rx="56.067902"
       sodipodi:cy="-203"
       sodipodi:cx="245"
       d="m 301.0679,-203 c 0,17.18307 -25.10245,31.1127 -56.0679,31.1127 -30.96545,0 -56.0679,-13.92963 -56.0679,-31.1127 0,-17.18307 25.10245,-31.1127 56.0679,-31.1127 30.96545,0 56.0679,13.92963 56.0679,31.1127 z"
       id="ellipse6389"
       ry="31.1127"
       rx="56.067902"
       cy="-203"
       cx="245" />
    <text
       style="font-size:14px;text-anchor:middle;font-family:'Times Roman,serif'"
       id="text6391"
       font-size="14.00"
       y="-208.39999"
       x="245">Atomic</text>
    <text
       style="font-size:14px;text-anchor:middle;font-family:'Times Roman,serif'"
       id="text6393"
       font-size="14.00"
       y="-190.39999"
       x="245">Activities</text>
  </g>
  <g
     class="edge"
     id="edge8"
     transform="translate(4,656)">
    <title
       id="title6396">atomic-&gt;subactivity</title>
    <path
       style="fill:none;stroke:#000000"
       inkscape:connector-curvature="0"
       id="path6398"
       d="m 245,-171.992 c 0,12.193 0,26.112 0,38.092" />
    <polygon
       style="fill:#000000;stroke:#000000"
       id="polygon6400"
       points="241.5,-133.548 248.5,-133.548 248.5,-133.548 245,-123.548 " />
  </g>
  <g
     class="edge"
     id="edge10"
     transform="translate(4,656)">
    <title
       id="title6403">atomic-&gt;occtree</title>
    <path
       style="fill:none;stroke:#000000"
       inkscape:connector-curvature="0"
       id="path6405"
       d="m 282.444,-179.775 c 21.443,13.3 48.597,30.142 71.702,44.473" />
    <polygon
       style="fill:#000000;stroke:#000000"
       id="polygon6407"
       points="352.441,-132.241 356.13,-138.19 356.13,-138.19 362.783,-129.944 " />
  </g>
  <g
     class="node"
     id="node11"
     transform="translate(4,656)">
    <title
       id="title6410">complex</title>
    <ellipse
       style="fill:#ffffff;stroke:#000000"
       sodipodi:ry="31.1127"
       sodipodi:rx="56.067902"
       sodipodi:cy="-301"
       sodipodi:cx="234"
       d="m 290.0679,-301 c 0,17.18307 -25.10245,31.1127 -56.0679,31.1127 -30.96545,0 -56.0679,-13.92963 -56.0679,-31.1127 0,-17.18307 25.10245,-31.1127 56.0679,-31.1127 30.96545,0 56.0679,13.92963 56.0679,31.1127 z"
       id="ellipse6412"
       ry="31.1127"
       rx="56.067902"
       cy="-301"
       cx="234" />
    <text
       style="font-size:14px;text-anchor:middle;font-family:'Times Roman,serif'"
       id="text6414"
       font-size="14.00"
       y="-306.39999"
       x="234">Complex</text>
    <text
       style="font-size:14px;text-anchor:middle;font-family:'Times Roman,serif'"
       id="text6416"
       font-size="14.00"
       y="-288.39999"
       x="234">Activities</text>
  </g>
  <g
     class="edge"
     id="edge12"
     transform="translate(4,656)">
    <title
       id="title6419">complex-&gt;atomic</title>
    <path
       style="fill:none;stroke:#000000"
       inkscape:connector-curvature="0"
       id="path6421"
       d="m 237.48,-269.992 c 0.923,8.222 1.934,17.229 2.907,25.897" />
    <polygon
       style="fill:#000000;stroke:#000000"
       id="polygon6423"
       points="236.911,-243.69 243.867,-244.47 243.867,-244.47 241.504,-234.142 " />
  </g>
  <g
     class="node"
     id="node13"
     transform="translate(4,656)">
    <title
       id="title6426">act_occ</title>
    <ellipse
       style="fill:#ffffff;stroke:#000000"
       sodipodi:ry="31.1127"
       sodipodi:rx="67.175102"
       sodipodi:cy="-399"
       sodipodi:cx="222"
       d="m 289.1751,-399 c 0,17.18307 -30.07532,31.1127 -67.1751,31.1127 -37.09978,0 -67.1751,-13.92963 -67.1751,-31.1127 0,-17.18307 30.07532,-31.1127 67.1751,-31.1127 37.09978,0 67.1751,13.92963 67.1751,31.1127 z"
       id="ellipse6428"
       ry="31.1127"
       rx="67.175102"
       cy="-399"
       cx="222" />
    <text
       style="font-size:14px;text-anchor:middle;font-family:'Times Roman,serif'"
       id="text6430"
       font-size="14.00"
       y="-404.39999"
       x="222">Activity</text>
    <text
       style="font-size:14px;text-anchor:middle;font-family:'Times Roman,serif'"
       id="text6432"
       font-size="14.00"
       y="-386.39999"
       x="222">Occurrence</text>
  </g>
  <g
     class="edge"
     id="edge14"
     transform="translate(4,656)">
    <title
       id="title6435">act_occ-&gt;complex</title>
    <path
       style="fill:none;stroke:#000000"
       inkscape:connector-curvature="0"
       id="path6437"
       d="m 225.797,-367.992 c 1.007,8.222 2.11,17.229 3.171,25.897" />
    <polygon
       style="fill:#000000;stroke:#000000"
       id="polygon6439"
       points="225.497,-341.643 232.445,-342.494 232.445,-342.494 230.187,-332.142 " />
  </g>
  <g
     class="node"
     id="node15"
     transform="translate(4,656)">
    <title
       id="title6442">duration</title>
    <ellipse
       style="fill:none;stroke:#000000"
       sodipodi:ry="31.1127"
       sodipodi:rx="55.154301"
       sodipodi:cy="-105"
       sodipodi:cx="543"
       d="m 598.1543,-105 c 0,17.183069 -24.69342,31.1127 -55.1543,31.1127 -30.46088,0 -55.1543,-13.929631 -55.1543,-31.1127 0,-17.18307 24.69342,-31.1127 55.1543,-31.1127 30.46088,0 55.1543,13.92963 55.1543,31.1127 z"
       id="ellipse6444"
       ry="31.1127"
       rx="55.154301"
       cy="-105"
       cx="543" />
    <text
       style="font-size:14px;text-anchor:middle;font-family:'Times Roman,serif'"
       id="text6446"
       font-size="14.00"
       y="-110.4"
       x="543">Duration</text>
    <text
       style="font-size:14px;text-anchor:middle;font-family:'Times Roman,serif'"
       id="text6448"
       font-size="14.00"
       y="-92.400002"
       x="543">Theory</text>
  </g>
  <g
     class="edge"
     id="edge16"
     transform="translate(4,656)">
    <title
       id="title6451">duration-&gt;psl_core</title>
    <path
       style="fill:none;stroke:#000000"
       inkscape:connector-curvature="0"
       id="path6453"
       d="m 505.483,-81.9536 c -20.885,12.8289 -46.725,28.7024 -67.234,41.3004" />
    <polygon
       style="fill:#000000;stroke:#000000"
       id="polygon6455"
       points="436.217,-43.5125 439.881,-37.548 439.881,-37.548 429.528,-35.296 " />
  </g>
  <g
     class="node"
     id="node17"
     transform="translate(4,656)">
    <title
       id="title6458">soo</title>
    <ellipse
       style="fill:none;stroke:#000000"
       sodipodi:ry="43.840599"
       sodipodi:rx="67.175102"
       sodipodi:cy="-510"
       sodipodi:cx="67"
       d="m 134.1751,-510 c 0,24.21249 -30.07532,43.8406 -67.1751,43.8406 -37.099785,0 -67.17510223,-19.62811 -67.17510223,-43.8406 0,-24.21249 30.07531723,-43.8406 67.17510223,-43.8406 37.09978,0 67.1751,19.62811 67.1751,43.8406 z"
       id="ellipse6460"
       ry="43.840599"
       rx="67.175102"
       cy="-510"
       cx="67" />
    <text
       style="font-size:14px;text-anchor:middle;font-family:'Times Roman,serif'"
       id="text6462"
       font-size="14.00"
       y="-524.40002"
       x="67">Subactivity</text>
    <text
       style="font-size:14px;text-anchor:middle;font-family:'Times Roman,serif'"
       id="text6464"
       font-size="14.00"
       y="-506.39999"
       x="67">Occurrence</text>
    <text
       style="font-size:14px;text-anchor:middle;font-family:'Times Roman,serif'"
       id="text6466"
       font-size="14.00"
       y="-488.39999"
       x="67">Ordering</text>
  </g>
  <g
     class="edge"
     id="edge18"
     transform="translate(4,656)">
    <title
       id="title6469">soo-&gt;act_occ</title>
    <path
       style="fill:none;stroke:#000000"
       inkscape:connector-curvature="0"
       id="path6471"
       d="m 112.667,-477.297 c 20.406,14.614 44.376,31.78 64.664,46.308" />
    <polygon
       style="fill:#000000;stroke:#000000"
       id="polygon6473"
       points="175.32,-428.124 179.396,-433.815 179.396,-433.815 185.488,-425.147 " />
  </g>
  <g
     class="node"
     id="node19"
     transform="translate(4,656)">
    <title
       id="title6476">preserve</title>
    <ellipse
       style="fill:none;stroke:#000000"
       sodipodi:ry="43.840599"
       sodipodi:rx="87.180199"
       sodipodi:cy="-510"
       sodipodi:cx="393"
       d="m 480.1802,-510 c 0,24.21249 -39.03191,43.8406 -87.1802,43.8406 -48.14829,0 -87.1802,-19.62811 -87.1802,-43.8406 0,-24.21249 39.03191,-43.8406 87.1802,-43.8406 48.14829,0 87.1802,19.62811 87.1802,43.8406 z"
       id="ellipse6478"
       ry="43.840599"
       rx="87.180199"
       cy="-510"
       cx="393" />
    <text
       style="font-size:14px;text-anchor:middle;font-family:'Times Roman,serif'"
       id="text6480"
       font-size="14.00"
       y="-524.40002"
       x="393">Occurrence</text>
    <text
       style="font-size:14px;text-anchor:middle;font-family:'Times Roman,serif'"
       id="text6482"
       font-size="14.00"
       y="-506.39999"
       x="393">Tree</text>
    <text
       style="font-size:14px;text-anchor:middle;font-family:'Times Roman,serif'"
       id="text6484"
       font-size="14.00"
       y="-488.39999"
       x="393">Automorphisms</text>
  </g>
  <g
     class="edge"
     id="edge20"
     transform="translate(4,656)">
    <title
       id="title6487">preserve-&gt;act_occ</title>
    <path
       style="fill:none;stroke:#000000"
       inkscape:connector-curvature="0"
       id="path6489"
       d="m 339.364,-475.183 c -22.396,14.537 -48.195,31.284 -69.891,45.367" />
    <polygon
       style="fill:#000000;stroke:#000000"
       id="polygon6491"
       points="267.55,-432.74 271.361,-426.869 271.361,-426.869 261.068,-424.36 " />
  </g>
  <g
     class="node"
     id="node21"
     transform="translate(4,656)">
    <title
       id="title6494">occ_precond</title>
    <ellipse
       style="fill:#bbffbb;stroke:#000000"
       sodipodi:ry="31.1127"
       sodipodi:rx="118.087"
       sodipodi:cy="-399"
       sodipodi:cx="425"
       d="m 543.087,-399 c 0,17.18307 -52.86935,31.1127 -118.087,31.1127 -65.21765,0 -118.087,-13.92963 -118.087,-31.1127 0,-17.18307 52.86935,-31.1127 118.087,-31.1127 65.21765,0 118.087,13.92963 118.087,31.1127 z"
       id="ellipse6496"
       ry="31.1127"
       rx="118.087"
       cy="-399"
       cx="425" />
    <text
       style="font-size:14px;text-anchor:middle;font-family:'Times Roman,serif'"
       id="text6498"
       font-size="14.00"
       y="-404.39999"
       x="425">Occurrence-based</text>
    <text
       style="font-size:14px;text-anchor:middle;font-family:'Times Roman,serif'"
       id="text6500"
       font-size="14.00"
       y="-386.39999"
       x="425">Activity Preconditions</text>
  </g>
  <g
     class="edge"
     id="edge22"
     transform="translate(4,656)">
    <title
       id="title6503">preserve-&gt;occ_precond</title>
    <path
       style="fill:none;stroke:#000000"
       inkscape:connector-curvature="0"
       id="path6505"
       d="m 405.555,-466.448 c 2.517,8.73 5.154,17.876 7.644,26.514" />
    <polygon
       style="fill:#000000;stroke:#000000"
       id="polygon6507"
       points="409.906,-438.72 416.633,-440.659 416.633,-440.659 416.04,-430.081 " />
  </g>
  <g
     class="node"
     id="node32"
     transform="translate(4,656)">
    <title
       id="title6510">precond</title>
    <ellipse
       style="fill:#bbffbb;stroke:#000000"
       sodipodi:ry="31.1127"
       sodipodi:rx="77.7817"
       sodipodi:cy="-301"
       sodipodi:cx="425"
       d="m 502.7817,-301 c 0,17.18307 -34.82405,31.1127 -77.7817,31.1127 -42.95765,0 -77.7817,-13.92963 -77.7817,-31.1127 0,-17.18307 34.82405,-31.1127 77.7817,-31.1127 42.95765,0 77.7817,13.92963 77.7817,31.1127 z"
       id="ellipse6512"
       ry="31.1127"
       rx="77.7817"
       cy="-301"
       cx="425" />
    <text
       style="font-size:14px;text-anchor:middle;font-family:'Times Roman,serif'"
       id="text6514"
       font-size="14.00"
       y="-306.39999"
       x="425">Activity</text>
    <text
       style="font-size:14px;text-anchor:middle;font-family:'Times Roman,serif'"
       id="text6516"
       font-size="14.00"
       y="-288.39999"
       x="425">Preconditions</text>
  </g>
  <g
     class="edge"
     id="edge36"
     transform="translate(4,656)">
    <title
       id="title6519">occ_precond-&gt;precond</title>
    <path
       style="fill:none;stroke:#000000"
       inkscape:connector-curvature="0"
       id="path6521"
       d="m 425,-367.992 c 0,8.133 0,17.033 0,25.614" />
    <polygon
       style="fill:#000000;stroke:#000000"
       id="polygon6523"
       points="421.5,-342.142 428.5,-342.142 428.5,-342.142 425,-332.142 " />
  </g>
  <g
     class="node"
     id="node23"
     transform="translate(4,656)">
    <title
       id="title6526">envelope</title>
    <ellipse
       style="fill:none;stroke:#000000"
       sodipodi:ry="31.1127"
       sodipodi:rx="70.918404"
       sodipodi:cy="-621"
       sodipodi:cx="220"
       d="m 290.9184,-621 c 0,17.18307 -31.75125,31.1127 -70.9184,31.1127 -39.16715,0 -70.9184,-13.92963 -70.9184,-31.1127 0,-17.18307 31.75125,-31.1127 70.9184,-31.1127 39.16715,0 70.9184,13.92963 70.9184,31.1127 z"
       id="ellipse6528"
       ry="31.1127"
       rx="70.918404"
       cy="-621"
       cx="220" />
    <text
       style="font-size:14px;text-anchor:middle;font-family:'Times Roman,serif'"
       id="text6530"
       font-size="14.00"
       y="-626.40002"
       x="220">Envelopes</text>
    <text
       style="font-size:14px;text-anchor:middle;font-family:'Times Roman,serif'"
       id="text6532"
       font-size="14.00"
       y="-608.40002"
       x="220">and Umbrae</text>
  </g>
  <g
     class="node"
     id="node24"
     transform="translate(4,656)">
    <title
       id="title6535">embedding</title>
    <ellipse
       style="fill:#bbffbb;stroke:#000000"
       sodipodi:ry="43.840599"
       sodipodi:rx="67.882301"
       sodipodi:cy="-510"
       sodipodi:cx="220"
       d="m 287.8823,-510 c 0,24.21249 -30.39194,43.8406 -67.8823,43.8406 -37.49036,0 -67.8823,-19.62811 -67.8823,-43.8406 0,-24.21249 30.39194,-43.8406 67.8823,-43.8406 37.49036,0 67.8823,19.62811 67.8823,43.8406 z"
       id="ellipse6537"
       ry="43.840599"
       rx="67.882301"
       cy="-510"
       cx="220" />
    <text
       style="font-size:14px;text-anchor:middle;font-family:'Times Roman,serif'"
       id="text6539"
       font-size="14.00"
       y="-524.40002"
       x="220">Embedded</text>
    <text
       style="font-size:14px;text-anchor:middle;font-family:'Times Roman,serif'"
       id="text6541"
       font-size="14.00"
       y="-506.39999"
       x="220">Activity</text>
    <text
       style="font-size:14px;text-anchor:middle;font-family:'Times Roman,serif'"
       id="text6543"
       font-size="14.00"
       y="-488.39999"
       x="220">Constraints</text>
  </g>
  <g
     class="edge"
     id="edge24"
     transform="translate(4,656)">
    <title
       id="title6546">envelope-&gt;embedding</title>
    <path
       style="fill:none;stroke:#000000"
       inkscape:connector-curvature="0"
       id="path6548"
       d="m 220,-589.785 c 0,7.927 0,16.678 0,25.392" />
    <polygon
       style="fill:#000000;stroke:#000000"
       id="polygon6550"
       points="216.5,-564.232 223.5,-564.231 223.5,-564.231 220,-554.231 " />
  </g>
  <g
     class="edge"
     id="edge32"
     transform="translate(4,656)">
    <title
       id="title6553">embedding-&gt;act_occ</title>
    <path
       style="fill:none;stroke:#000000"
       inkscape:connector-curvature="0"
       id="path6555"
       d="m 220.796,-465.811 c 0.152,8.417 0.31,17.196 0.46,25.519" />
    <polygon
       style="fill:#000000;stroke:#000000"
       id="polygon6557"
       points="217.761,-439.992 224.76,-440.118 224.76,-440.118 221.44,-430.057 " />
  </g>
  <g
     class="node"
     id="node26"
     transform="translate(4,656)">
    <title
       id="title6560">requires</title>
    <ellipse
       style="fill:none;stroke:#000000"
       sodipodi:ry="43.840599"
       sodipodi:rx="79.195999"
       sodipodi:cy="-510"
       sodipodi:cx="577"
       d="m 656.196,-510 c 0,24.21249 -35.45726,43.8406 -79.196,43.8406 -43.73874,0 -79.196,-19.62811 -79.196,-43.8406 0,-24.21249 35.45726,-43.8406 79.196,-43.8406 43.73874,0 79.196,19.62811 79.196,43.8406 z"
       id="ellipse6562"
       ry="43.840599"
       rx="79.195999"
       cy="-510"
       cx="577" />
    <text
       style="font-size:14px;text-anchor:middle;font-family:'Times Roman,serif'"
       id="text6564"
       font-size="14.00"
       y="-524.40002"
       x="577">Resource</text>
    <text
       style="font-size:14px;text-anchor:middle;font-family:'Times Roman,serif'"
       id="text6566"
       font-size="14.00"
       y="-506.39999"
       x="577">Requirements</text>
    <text
       style="font-size:14px;text-anchor:middle;font-family:'Times Roman,serif'"
       id="text6568"
       font-size="14.00"
       y="-488.39999"
       x="577">Theory</text>
  </g>
  <g
     class="edge"
     id="edge26"
     transform="translate(4,656)">
    <title
       id="title6571">requires-&gt;disc_state</title>
    <path
       style="fill:none;stroke:#000000"
       inkscape:connector-curvature="0"
       id="path6573"
       d="m 574.899,-465.791 c -4.522,51.754 -18.688,137.76 -62.899,195.791 -11.299,14.832 -26.664,28.11 -41.337,38.857" />
    <polygon
       style="fill:#000000;stroke:#000000"
       id="polygon6575"
       points="468.283,-233.747 472.324,-228.031 472.324,-228.031 462.139,-225.115 " />
  </g>
  <g
     class="edge"
     id="edge28"
     transform="translate(4,656)">
    <title
       id="title6578">requires-&gt;act_occ</title>
    <path
       style="fill:none;stroke:#000000"
       inkscape:connector-curvature="0"
       id="path6580"
       d="m 520.709,-478.989 c -10.336,4.863 -21.187,9.444 -31.709,12.989 -81.862,27.581 -108.145,11.564 -191,36 -5.92,1.746 -12.012,3.788 -18.049,5.977" />
    <polygon
       style="fill:#000000;stroke:#000000"
       id="polygon6582"
       points="278.671,-427.281 281.135,-420.729 281.135,-420.729 270.543,-420.485 " />
  </g>
  <g
     class="node"
     id="node29"
     transform="translate(4,656)">
    <title
       id="title6585">res_set</title>
    <ellipse
       style="fill:none;stroke:#000000"
       sodipodi:ry="18.3848"
       sodipodi:rx="79.903099"
       sodipodi:cy="-621"
       sodipodi:cx="577"
       d="m 656.9031,-621 c 0,10.15364 -35.77384,18.3848 -79.9031,18.3848 -44.12926,0 -79.9031,-8.23116 -79.9031,-18.3848 0,-10.15364 35.77384,-18.3848 79.9031,-18.3848 44.12926,0 79.9031,8.23116 79.9031,18.3848 z"
       id="ellipse6587"
       ry="18.3848"
       rx="79.903099"
       cy="-621"
       cx="577" />
    <text
       style="font-size:14px;text-anchor:middle;font-family:'Times Roman,serif'"
       id="text6589"
       font-size="14.00"
       y="-617.40002"
       x="577">Resource Sets</text>
  </g>
  <g
     class="edge"
     id="edge30"
     transform="translate(4,656)">
    <title
       id="title6592">res_set-&gt;requires</title>
    <path
       style="fill:none;stroke:#000000"
       inkscape:connector-curvature="0"
       id="path6594"
       d="m 577,-602.421 c 0,10.525 0,24.291 0,37.972" />
    <polygon
       style="fill:#000000;stroke:#000000"
       id="polygon6596"
       points="573.5,-564.058 580.5,-564.058 580.5,-564.058 577,-554.058 " />
  </g>
  <g
     class="edge"
     id="edge34"
     transform="translate(4,656)">
    <title
       id="title6599">precond-&gt;disc_state</title>
    <path
       style="fill:none;stroke:#000000"
       inkscape:connector-curvature="0"
       id="path6601"
       d="m 425,-269.992 c 0,8.133 0,17.033 0,25.614" />
    <polygon
       style="fill:#000000;stroke:#000000"
       id="polygon6603"
       points="421.5,-244.142 428.5,-244.142 428.5,-244.142 425,-234.142 " />
  </g>
  <text
     xml:space="preserve"
     style="font-size:28.79999924px;font-style:normal;font-variant:normal;font-weight:normal;font-stretch:normal;text-align:center;line-height:125%;letter-spacing:0px;word-spacing:0px;text-anchor:middle;fill:#000000;fill-opacity:1;stroke:none;font-family:Serif;-inkscape-font-specification:Serif"
     x="112.6075"
     y="498.76492"
     id="text7543"
     sodipodi:linespacing="125%"><tspan
       sodipodi:role="line"
       id="tspan7545"
       x="112.6075"
       y="498.76492">Outer</tspan><tspan
       sodipodi:role="line"
       x="112.6075"
       y="534.76495"
       id="tspan7547">Core</tspan></text>
</svg>
